<svg xmlns="http://www.w3.org/2000/svg" viewBox="0 0 200 200"><defs><style>.cls-1{fill:#412f29;}.cls-2{fill:#8e715e;}.cls-2,.cls-3{fill-rule:evenodd;}.cls-3{fill:#e4cda9;}</style></defs><g id="Layer_7" data-name="Layer 7"><path class="cls-1" d="M100,6.15A93.85,93.85,0,1,1,6.15,100,94,94,0,0,1,100,6.15m0-3A96.85,96.85,0,1,0,196.85,100,96.85,96.85,0,0,0,100,3.15Z"/><path class="cls-1" d="M113.5,175.07c-16.75,1.86-32.07,1-44.67-5.1S46.25,152.48,40.7,133.52a2.6,2.6,0,0,1,1.76-3.2,2.64,2.64,0,0,1,1-.08h0c16.28,2,30.84,5.92,43,12.47s22.2,15.9,28.95,28.59a2.58,2.58,0,0,1-1.06,3.49,2.63,2.63,0,0,1-.93.28Zm-42.42-9.76c10.63,5.13,23.61,6.22,37.92,5a63.93,63.93,0,0,0-24.91-23.07c-10.58-5.69-23.15-9.29-37.21-11.34,5.22,15.09,13.61,24.3,24.2,29.4"/><path class="cls-1" d="M98.71,147.94a69,69,0,0,1,8.86,7.93A50,50,0,0,1,116,168.2c11.1-4.68,20.36-10.62,27-18.38,6.33-7.43,10.26-16.61,11.08-28a237.59,237.59,0,0,0-30.32,11.57,152.66,152.66,0,0,0-25.05,14.58m5.08,11.45a72.78,72.78,0,0,0-10.91-9.34h0a2.83,2.83,0,0,1-.53-.51,2.58,2.58,0,0,1,.47-3.62,153.06,153.06,0,0,1,28.76-17.22,248.68,248.68,0,0,1,34.5-12.92h0a2.76,2.76,0,0,1,.77-.11,2.59,2.59,0,0,1,2.55,2.61c-.23,14.41-4.74,25.79-12.47,34.87s-18.34,15.62-31.12,20.72l-.09,0a2.58,2.58,0,0,1-3.39-1.37,45.3,45.3,0,0,0-8.54-13.15"/><path class="cls-1" d="M92.88,144l11.42-6.89A86.87,86.87,0,0,0,78,120.71a139.34,139.34,0,0,0-30.33-8.11l6.82,19a121.46,121.46,0,0,1,18.6,4.28,135.31,135.31,0,0,1,19.82,8m17-4.2L94.4,149.08a2.6,2.6,0,0,1-2.58.13,130.89,130.89,0,0,0-20.3-8.35,116.35,116.35,0,0,0-19.15-4.3,2.57,2.57,0,0,1-2.26-1.72l-8.8-24.58h0a2.49,2.49,0,0,1-.12-1.22,2.57,2.57,0,0,1,2.91-2.2c12.6,1.77,24.68,4.55,35.81,9.08a90.89,90.89,0,0,1,30.32,19.66,2.42,2.42,0,0,1,.52.62,2.59,2.59,0,0,1-.88,3.55"/><path class="cls-1" d="M89.76,119.73c3.13,1.81,6.17,3.71,9,5.76a63.89,63.89,0,0,1,9.46,8.13,112.83,112.83,0,0,1,13.38-7.28,110.83,110.83,0,0,1,15.73-5.78l6.27-23.16a169.11,169.11,0,0,0-27.78,8.83,179.39,179.39,0,0,0-26.1,13.5m6,10a124.22,124.22,0,0,0-12.23-7.52,2.53,2.53,0,0,1-1-.9,2.59,2.59,0,0,1,.75-3.58,186.41,186.41,0,0,1,30.55-16.24,173.93,173.93,0,0,1,32.85-10h0a2.57,2.57,0,0,1,3,3.2L142,123.32a2.59,2.59,0,0,1-1.84,1.84A103.65,103.65,0,0,0,123.79,131a106.41,106.41,0,0,0-14.55,8.11h0a2.59,2.59,0,0,1-3.39-.48,55.46,55.46,0,0,0-10-9"/><path class="cls-1" d="M83.47,121l-2.61-1.08c-6.3-2.62-11.71-4.88-20.68-6.17a2.61,2.61,0,0,1-2.1-1.78L48.6,84.19a2.59,2.59,0,0,1,2.52-3.41c11.73-.37,22.37,1.26,31.67,5.35a54.31,54.31,0,0,1,23.78,20.39,2.57,2.57,0,0,1-1.31,3.87,111,111,0,0,0-10.64,4.49,34,34,0,0,0-8.27,5.61,2.58,2.58,0,0,1-2.88.47m-.63-5.85,1.21.5a40.85,40.85,0,0,1,8.25-5.34c2.55-1.29,5.26-2.43,8.1-3.55A48.67,48.67,0,0,0,80.71,90.87c-7.69-3.38-16.44-4.94-26.07-5l7.84,22.94c8.69,1.41,14.11,3.67,20.36,6.28m22.42-4.72-3-1a2.59,2.59,0,0,0,3,1"/><path class="cls-1" d="M92.85,90.46a56.65,56.65,0,0,1,6.33,6,44.56,44.56,0,0,1,5.46,7.59l17-6.34a86.4,86.4,0,0,0,7-16,93.26,93.26,0,0,0,3.23-13.52A104.44,104.44,0,0,0,111,77.08,93.36,93.36,0,0,0,92.85,90.46m2.46,9.48a54.37,54.37,0,0,0-7.94-7.21h0a3,3,0,0,1-.27-.23,2.58,2.58,0,0,1,0-3.65,98.21,98.21,0,0,1,21.34-16.26,111,111,0,0,1,25.82-10.51,2.73,2.73,0,0,1,1-.07,2.6,2.6,0,0,1,2.26,2.89,101.16,101.16,0,0,1-4,18.38,91.81,91.81,0,0,1-7.86,17.78,2.58,2.58,0,0,1-1.37,1.2l-19.77,7.39a2.59,2.59,0,0,1-3.42-1.22,37.53,37.53,0,0,0-5.77-8.49"/><path class="cls-1" d="M71.63,80.67A46.46,46.46,0,0,1,80.22,83a39.43,39.43,0,0,1,6.35,3.12,38.85,38.85,0,0,1,6.16-6.44,32.58,32.58,0,0,1,6.58-4.21C94.45,70,89.2,66.58,83.62,65s-11.75-1.34-18.18.46Zm6.75,7.18a42.25,42.25,0,0,0-9-2.3h0a2.59,2.59,0,0,1-2-1.59L59.58,64.8h0s0-.09,0-.14a2.58,2.58,0,0,1,1.62-3.27C69.54,58.54,77.52,57.92,85,60s14.3,6.87,20.44,14.8a2.52,2.52,0,0,1,.53.9A2.58,2.58,0,0,1,104.37,79,26.85,26.85,0,0,0,96,83.69a35.26,35.26,0,0,0-6.63,7.38.38.38,0,0,1-.09.13,2.58,2.58,0,0,1-3.61.58,31.37,31.37,0,0,0-7.3-3.93"/><path class="cls-1" d="M95.44,64.32a51,51,0,0,1,4.5,4.29,33.66,33.66,0,0,1,3.86,5,59.73,59.73,0,0,1,8.59-4.85,60.9,60.9,0,0,1,9.75-3.51l6.93-14.95a114.28,114.28,0,0,0-17.24,5.52,100.92,100.92,0,0,0-16.39,8.54m.72,7.79a52.41,52.41,0,0,0-6.64-5.92h0a2.34,2.34,0,0,1-.55-.58A2.58,2.58,0,0,1,89.61,62a105.76,105.76,0,0,1,20.26-11,122.68,122.68,0,0,1,23.23-6.9h0a2.64,2.64,0,0,1,1.58.19,2.59,2.59,0,0,1,1.26,3.43l-9.59,20.69a2.55,2.55,0,0,1-1.75,1.5,57.53,57.53,0,0,0-10.06,3.5,54.56,54.56,0,0,0-9.92,5.91,3,3,0,0,1-.54.35,2.58,2.58,0,0,1-3.45-1.21,26.2,26.2,0,0,0-4.47-6.35"/><path class="cls-1" d="M83.05,57.16a40.49,40.49,0,0,1,4.54,1.94,28.86,28.86,0,0,1,3.8,2.31,51.59,51.59,0,0,1,7.35-6.06,61,61,0,0,1,8.68-4.88,54.35,54.35,0,0,0-4-10.36,47.38,47.38,0,0,0-6.36-9.48A89.76,89.76,0,0,0,89,43.57a117.65,117.65,0,0,0-5.91,13.59m2.2,6.56A38.64,38.64,0,0,0,79,61.24h0l-.08,0a2.57,2.57,0,0,1-1.6-3.27,126.55,126.55,0,0,1,7.07-16.73A92.54,92.54,0,0,1,94.9,25.08a3.23,3.23,0,0,1,.25-.29,2.59,2.59,0,0,1,3.65.05,52.94,52.94,0,0,1,9.27,12.92A61.4,61.4,0,0,1,113,51.21a2.58,2.58,0,0,1-1.49,3.13,55.77,55.77,0,0,0-9.81,5.28,46.68,46.68,0,0,0-8.13,7h0a2.58,2.58,0,0,1-3.65.15,20.43,20.43,0,0,0-4.6-3.1"/><path class="cls-2" d="M84.09,147.25c-10.58-5.69-23.15-9.29-37.21-11.34,5.22,15.09,13.61,24.3,24.2,29.4s23.61,6.22,37.92,5a63.93,63.93,0,0,0-24.91-23.07"/><path class="cls-2" d="M123.76,133.36a152.66,152.66,0,0,0-25.05,14.58,69,69,0,0,1,8.86,7.93A50.27,50.27,0,0,1,116,168.2c11.1-4.68,20.36-10.62,27-18.38,6.33-7.43,10.26-16.61,11.08-28a237.59,237.59,0,0,0-30.32,11.57"/><path class="cls-2" d="M108.26,133.62a112.83,112.83,0,0,1,13.38-7.28,110.83,110.83,0,0,1,15.73-5.78l6.27-23.16a169.11,169.11,0,0,0-27.78,8.83,179.39,179.39,0,0,0-26.1,13.5c3.13,1.81,6.17,3.71,9,5.76a63.89,63.89,0,0,1,9.46,8.13"/><path class="cls-2" d="M104.3,137.06A86.87,86.87,0,0,0,78,120.71a139.34,139.34,0,0,0-30.33-8.11l6.82,19a121.46,121.46,0,0,1,18.6,4.28,135.31,135.31,0,0,1,19.82,8Z"/><path class="cls-2" d="M84.05,115.61a40.85,40.85,0,0,1,8.25-5.34c2.49-1.26,5.15-2.38,7.92-3.47-.24-.44-.5-.87-.76-1.3A48.35,48.35,0,0,0,80.71,90.87c-7.69-3.38-16.44-4.94-26.07-5l7.85,22.94c8.68,1.41,14.1,3.67,20.35,6.28Z"/><path class="cls-2" d="M99.18,96.5a44.76,44.76,0,0,1,4.56,6.07c.37.47.73,1,1.09,1.44l16.76-6.26a86.4,86.4,0,0,0,7-16,93.26,93.26,0,0,0,3.23-13.52A104.44,104.44,0,0,0,111,77.08,93.73,93.73,0,0,0,92.84,90.46a55.9,55.9,0,0,1,6.34,6"/><path class="cls-2" d="M86.57,86.15a38.85,38.85,0,0,1,6.16-6.44A32.35,32.35,0,0,1,99,75.65a28.1,28.1,0,0,0-1.93-2.52A31.26,31.26,0,0,0,83.62,65c-5.66-1.6-11.75-1.34-18.18.46l6.19,15.2A46.67,46.67,0,0,1,80.22,83a39.43,39.43,0,0,1,6.35,3.12"/><path class="cls-2" d="M99.94,68.61c.28.29.54.59.81.89,1.18,1.16,2.33,2.42,3.47,3.79a58.78,58.78,0,0,1,8.17-4.57,60.9,60.9,0,0,1,9.75-3.51l6.93-14.95a114.28,114.28,0,0,0-17.24,5.52,99.74,99.74,0,0,0-15.2,7.79c-.34.3-.67.61-1,.92a51,51,0,0,1,4.3,4.12"/><path class="cls-2" d="M93.45,59.47a54.29,54.29,0,0,1,5.29-4.12,61,61,0,0,1,8.68-4.88,54.35,54.35,0,0,0-4-10.36,47.38,47.38,0,0,0-6.36-9.48A89.76,89.76,0,0,0,89,43.57a117.65,117.65,0,0,0-5.91,13.59,40.49,40.49,0,0,1,4.54,1.94,29.07,29.07,0,0,1,3.37,2c.82-.55,1.65-1.1,2.49-1.63"/><path class="cls-3" d="M84.09,147.25c-10.58-5.69-23.15-9.29-37.21-11.34,3.79,11,9.24,18.8,16,24.23a56.52,56.52,0,0,1-10.59-19c14.06,2,26.63,5.65,37.21,11.34a69.38,69.38,0,0,1,12.33,8.36,66.44,66.44,0,0,0-17.74-13.57"/><path class="cls-3" d="M123.76,133.36q-2.67,1.24-5.25,2.57c-1.65.93-3.47,1.67-5.05,2.67s-3.21,1.81-4.77,2.75h0l-10,6.59a58,58,0,0,1,4.6,3.78c13.79-9.95,33.89-18.47,50-23.91a37.8,37.8,0,0,0,.75-6q-5.75,1.78-11.23,3.75l-.07.23c-1,.3-2.07.6-3.09.93q-8.31,3.09-15.93,6.66"/><path class="cls-3" d="M142.43,101.86l1.21-4.46c-18.13,4.08-39.43,10.88-53.88,22.33,2.16,1.26,2.55,1.4,4.59,2.78,12.83-7.84,33.53-16.68,48.08-20.65"/><path class="cls-3" d="M104.3,137.06A86.87,86.87,0,0,0,78,120.71a139.34,139.34,0,0,0-30.33-8.11l6.82,19c1.25.18,2.51.39,3.77.62l-5.18-14.45a139.34,139.34,0,0,1,30.33,8.11,89.89,89.89,0,0,1,20.43,11.44Z"/><path class="cls-3" d="M97.34,103a48,48,0,0,0-16.63-12.1c-7.69-3.38-16.44-4.94-26.07-5l7.84,22.94c1.37.22,2.66.47,3.89.73L60.05,91.1c9.63,0,18.38,1.6,26.07,5A47.9,47.9,0,0,1,97.34,103"/><path class="cls-3" d="M131,72.54a31.9,31.9,0,0,0,.81-4.36c-1.28.4-2.55.81-3.8,1.24a76.9,76.9,0,0,0-18.74,8.65A93.43,93.43,0,0,0,92.85,90.46a25,25,0,0,1,3.7,3.3C102.68,88,122.77,75.68,131,72.54"/><path class="cls-3" d="M98.49,74.92c-.45-.6-.92-1.2-1.42-1.79A31.26,31.26,0,0,0,83.62,65c-5.66-1.6-11.75-1.34-18.18.46l6.19,15.2c1.23.22,2.44.48,3.61.78L70.85,70.68c6.43-1.8,12.52-2.06,18.18-.46a29.28,29.28,0,0,1,9.46,4.7"/><path class="cls-3" d="M98.2,66.82c3.24-3.1,22.78-10.68,29.08-12.7l1.79-3.85a113.73,113.73,0,0,0-16.31,5.13c-3.18,1.46-13.13,5.5-15.38,7.5-.59.37-1.36,1-1.94,1.42Z"/><path class="cls-3" d="M99.53,33.69c-1.31-2.14-.66-1-2.43-3.06A89.76,89.76,0,0,0,89,43.57a117.65,117.65,0,0,0-5.91,13.59c1.63.59-.83-.77.56-.06q.9.46,1.74,1c.46-3,11.67-22.81,14.18-24.37"/></g></svg>