<svg xmlns="http://www.w3.org/2000/svg" viewBox="0 0 800 200"><defs><style>.cls-1{fill:#412f29;}.cls-2,.cls-3{fill:#8e715e;}.cls-3,.cls-4{fill-rule:evenodd;}.cls-4{fill:#e4cda9;}</style></defs><g id="Layer_7" data-name="Layer 7"><path class="cls-1" d="M656.28,24.63A72.57,72.57,0,1,1,583.71,97.2a72.64,72.64,0,0,1,72.57-72.57m0-3A75.57,75.57,0,1,0,731.84,97.2a75.57,75.57,0,0,0-75.56-75.57Z"/><path class="cls-1" d="M63.17,36.65c9.09,0,16.39,1.66,21.64,5.5,5,3.71,8.45,9.73,8.45,18.18,0,18.69-16,26.24-28.16,26.24a22.21,22.21,0,0,1-3.46-.26L52.81,84v20c0,10.75.89,11,12.67,12.29v3.58H30.15v-3.58c11-1.16,11.52-1.93,11.52-12.55V52.9c0-11.39-1.41-11.65-11.52-12.67V36.65ZM52.81,79.53a23.18,23.18,0,0,0,9.34,1.66c8.58,0,19.2-4.35,19.2-20.48,0-14.08-9.21-19.71-20-19.71-3.71,0-6.4.64-7.17,1.53-1,.9-1.4,2.44-1.4,5.89Z"/><path class="cls-1" d="M102.21,119.85v-3.58c8.07-.77,9-1.41,9-10.12V79.78c0-7.93-.38-8.44-8.06-9.72V67a83.35,83.35,0,0,0,18.17-5.12v44.29c0,8.71.9,9.35,9.22,10.12v3.58Zm13.31-70.53a7,7,0,0,1-6.78-6.79,6.92,6.92,0,0,1,6.91-7c3.59,0,6.53,2.95,6.53,7A6.8,6.8,0,0,1,115.52,49.32Z"/><path class="cls-1" d="M173.77,119.85v-3.58c7.42-.77,8.19-1.67,8.19-10.37V84.78c0-9-3.2-15-11.65-15-5.25,0-10.24,3.07-14.21,6.66v30c0,8.83.77,9.09,8.32,9.86v3.58H136.77v-3.58c8.45-.9,9.22-1.41,9.22-9.86V80c0-8.32-.9-8.7-7.81-9.86V66.85a72.2,72.2,0,0,0,17.92-5.12V71.85c2.56-1.79,5.38-3.71,8.7-5.89,3.59-2.31,6.92-3.84,10.63-3.84,10.24,0,16.64,7.55,16.64,20v24.32c0,8.7.77,9.09,8.19,9.86v3.58Z"/><path class="cls-1" d="M254.28,109c-8.2,10.24-17.16,12.42-21.25,12.42-15.62,0-25.09-12.81-25.09-27.53a32.88,32.88,0,0,1,8.32-22.4c5.38-6,12.42-9.34,19.07-9.34,11.14,0,19.59,9.6,19.59,19.84-.13,2.56-.51,3.71-2.56,4.22-2.56.52-19,1.67-34.18,2.18-.38,17.15,10.11,24.19,19.2,24.19,5.25,0,10.11-2.17,14.85-6.53Zm-22-42c-5.89,0-11.65,5.51-13.44,15.88,7.17,0,14.34,0,21.89-.39,2.3,0,3.07-.64,3.07-2.56C243.91,73.13,239.43,67,232.26,67Z"/><path class="cls-1" d="M312.13,108.33c-5.63,7.42-14.21,13.06-21.89,13.06-16.25,0-25.86-13.19-25.86-26.89,0-10.11,4.36-18.56,12.93-25.08,6.79-5.25,14.47-7.3,19.46-7.3,5.76,0,10,1.79,11.9,3.46,1.8,1.4,2.05,2.3,2.05,3.71,0,3.07-3.2,5.76-4.61,5.76-.64,0-1.15-.26-2.43-1.28a19,19,0,0,0-12.93-5.38c-8.44,0-15.87,7.17-15.87,20.48-.13,17.8,12,23.68,19.46,23.68,5.37,0,9.73-1.41,15.62-7Z"/><path class="cls-1" d="M347.58,62.12c16,0,27.91,12.16,27.91,28.67,0,20.74-15.36,30.6-27.91,30.6-17.66,0-28.41-14.21-28.41-28.55C319.17,72,335.42,62.12,347.58,62.12Zm-1.53,4.35c-7.81,0-14.85,7.55-14.85,22.4,0,16.26,7.17,28,17.67,28,7.93,0,14.59-5.77,14.59-23.3C363.46,78.63,357.31,66.47,346.05,66.47Z"/><path class="cls-1" d="M420.54,119.85v-3.58c7.43-.77,8.2-1.67,8.2-10.37V84.78c0-9-3.2-15-11.65-15-5.25,0-10.24,3.07-14.21,6.66v30c0,8.83.77,9.09,8.32,9.86v3.58H383.55v-3.58c8.45-.9,9.22-1.41,9.22-9.86V80c0-8.32-.9-8.7-7.81-9.86V66.85a72.2,72.2,0,0,0,17.92-5.12V71.85c2.56-1.79,5.38-3.71,8.7-5.89,3.59-2.31,6.92-3.84,10.63-3.84,10.24,0,16.64,7.55,16.64,20v24.32c0,8.7.77,9.09,8.19,9.86v3.58Z"/><path class="cls-1" d="M501.06,109c-8.2,10.24-17.16,12.42-21.25,12.42-15.62,0-25.09-12.81-25.09-27.53A32.88,32.88,0,0,1,463,71.46c5.38-6,12.42-9.34,19.07-9.34,11.14,0,19.59,9.6,19.59,19.84-.13,2.56-.52,3.71-2.56,4.22-2.56.52-18.95,1.67-34.18,2.18-.38,17.15,10.11,24.19,19.2,24.19,5.25,0,10.11-2.17,14.85-6.53ZM479,67c-5.89,0-11.65,5.51-13.44,15.88,7.17,0,14.34,0,21.89-.39,2.3,0,3.07-.64,3.07-2.56C490.69,73.13,486.21,67,479,67Z"/><path class="cls-2" d="M41.77,157.9a33.62,33.62,0,0,1-2.27,5.18,34,34,0,0,1-5.94.76c-6.19,0-10.65-3.81-10.65-10.4,0-8.5,6.62-14,14.68-14a21.8,21.8,0,0,1,6.27.86c-.26,1.23-.54,3.64-.72,5.44l-1.12.07c-.07-4.21-1.84-5.07-5.22-5.07-6.15,0-10.44,6-10.44,12.7,0,5.44,2.67,9.11,7.49,9.11,3.53,0,5.18-2.09,6.95-5.08Z"/><path class="cls-2" d="M59,152.68a11.56,11.56,0,0,1-5,9.61,8.67,8.67,0,0,1-4.43,1.44c-3.42,0-4.82-2.73-4.82-5.61A11,11,0,0,1,50.48,148a9.11,9.11,0,0,1,3.71-1C57.21,147.07,59,149.05,59,152.68Zm-11.23,5c0,2.7,1,4.5,3,4.5,3.42,0,5.22-5.51,5.22-9.39,0-3-1.29-4.25-3-4.25C49.33,148.58,47.75,154,47.75,157.72Z"/><path class="cls-2" d="M78.16,160.06c-1.9,2.52-4.1,3.67-5.14,3.67s-1.48-.86-.8-3.81c.65-2.56,1.26-5.11,1.8-7.38s.44-3.13-.46-3.13c-1.19,0-4,2-6.41,5.76a8.93,8.93,0,0,0-1.22,3c-.36,1.4-.83,3.35-1.12,4.82a19,19,0,0,0-2.56.72l-.25-.25c1-3.92,2-8.31,3-12.31.26-1.12.11-1.44-.18-1.44s-1.29.79-2.19,1.66l-.51-.94c1.66-2.09,3.53-3.38,4.72-3.38,1,0,1.33,1.26.58,4.39l-.51,2.12c3.2-4.17,6.44-6.51,8.6-6.51,1.19,0,2.31.82,1.16,5.65-.47,2-1.16,4.75-1.7,7-.21,1-.21,1.4,0,1.4a6,6,0,0,0,2.66-1.94Z"/><path class="cls-2" d="M84.47,147.5c.72-3.38,1.9-6,4-7.85a7.81,7.81,0,0,1,5.29-2.23c3.35,0,4.21,2,4.21,2.84A1.66,1.66,0,0,1,96.6,142a1,1,0,0,1-1.37-.65c-.43-1.4-1.15-2.48-2.85-2.48-3,0-4.17,3.6-5.18,8.64h4.28a30.72,30.72,0,0,0,5.15-.36l.25.25c-.68,2.59-2.41,9.79-3.06,12.35-.25,1-.25,1.37,0,1.37s1.34-.51,2.6-1.84l.5.9c-1.8,2.41-4.07,3.56-5.15,3.56s-1.33-.93-.65-3.81c.58-2.38,1.48-5.76,2.16-8.68.47-1.94.33-2.27-1-2.27H87c-.69,4-1,6.27-1.88,10.52-1.22,6.37-2.52,8.85-4.46,10.87a6.68,6.68,0,0,1-4.21,2.41c-1.33,0-2.31-.69-2.31-1.59a2.92,2.92,0,0,1,1.12-2,.49.49,0,0,1,.68,0,3.8,3.8,0,0,0,2.34,1.23c1.91,0,2.52-2.23,3.89-9.68,1-5.48,1.59-9,2-11.78h-3l-.11-.39,1-1.08Z"/><path class="cls-2" d="M104.7,159c-.58.54-.94.89-.94,1.33s.72,1.22,2.88,2.26c4,1.84,5,3,5,4.61,0,3-5.08,5.62-8.71,5.62s-6.73-1.87-6.73-4.18c0-1.51,2.12-3.09,6.12-5.4-.94-.57-1.26-1.22-1.23-1.73s.87-1.58,2.49-2.59Zm4.28,9.39c0-.76-.32-1.58-1.73-2.45a35.92,35.92,0,0,0-3.92-2c-2.84,1.58-4.07,2.92-4.07,4.18,0,1.87,2.41,3.2,5.11,3.2S109,169.82,109,168.34Zm-8.71-13.5a7.7,7.7,0,0,1,3.56-6.48,8.58,8.58,0,0,1,4-1.29,4.69,4.69,0,0,1,3.06,1,7.81,7.81,0,0,0,4-.83l.26.83a4.84,4.84,0,0,1-3.35,1.76,7.37,7.37,0,0,1,.21,1.66,7.2,7.2,0,0,1-2.52,5.58,8.56,8.56,0,0,1-5.43,2.08C101.57,159.09,100.27,157.11,100.27,154.84Zm9-3c0-2.23-.9-3.49-2.48-3.49-2.12,0-3.82,2.77-3.82,6,0,2.16,1,3.32,2.38,3.32C107.58,157.69,109.3,155.13,109.3,151.89Z"/><path class="cls-2" d="M132,160c-1.77,2.44-4.11,3.67-5.11,3.67s-1.37-.87-.8-3.86c.29-1.36.47-2.15.65-3a26.64,26.64,0,0,1-5,5.29,6.59,6.59,0,0,1-3.49,1.52c-1.16,0-2.45-.76-1.44-5.19.54-2.23,1.18-4.89,1.8-7.41.28-1.08.25-1.41,0-1.41a5.9,5.9,0,0,0-2.34,1.66l-.5-.9c1.73-1.91,4.06-3.38,5.18-3.38s1,1.11.4,3.88c-.62,2.38-1.26,5-1.77,7.17-.54,2.45-.32,3.13.4,3.13,1.26,0,3.38-1.87,5.22-4.21a14,14,0,0,0,2.63-5.22c.21-.83.57-2.31.86-3.85.72-.22,1.84-.62,2.59-.94h.4c-1.08,4.18-2.41,9.65-3,12.74-.11.87,0,1.23.25,1.23s1.19-.43,2.52-1.84Z"/><path class="cls-2" d="M134.79,150.49c1.8-2.13,3.71-3.42,4.75-3.42,1.23,0,1.12,1.9.44,5l-.22,1c1.94-3.31,4.43-6,5.87-6a1.67,1.67,0,0,1,1.65,1.62,3.39,3.39,0,0,1-1.4,2.3c-.32.22-.61.22-.79,0-.4-.43-.76-1-1.19-1-.83,0-2.59,2.55-3.42,4-1.26,2.27-1.91,5.58-2.63,9a21.58,21.58,0,0,0-2.63.72l-.25-.25c.87-3.31,2.13-8.78,2.63-11.41.4-2,.29-2.34,0-2.34a5.42,5.42,0,0,0-2.34,1.66Z"/><path class="cls-2" d="M163.19,160.06c-1.76,2.38-4,3.67-5,3.67s-1.44-.82-.79-4.1l.5-2.48a19.92,19.92,0,0,1-4.32,4.85,6.57,6.57,0,0,1-3.7,1.73c-1.26,0-2.31-1.55-2.31-4.46a13.28,13.28,0,0,1,4-9.36,10.54,10.54,0,0,1,6.87-2.84,24.31,24.31,0,0,1,4.18.61c-.65,2.27-1.91,7.81-2.59,11.88-.18,1-.11,1.4.18,1.4s1.19-.47,2.48-1.8Zm-6.51-3a12.6,12.6,0,0,0,2.09-4.32,31.88,31.88,0,0,0,.79-3.52,7.05,7.05,0,0,0-2.74-.58c-4.24,0-6.22,5.47-6.22,10.15,0,1.44.39,2.38,1.11,2.38C152.83,161.18,154.41,160.06,156.68,157.07Z"/><path class="cls-2" d="M175.11,148.76c-.72.07-2.55.21-3.63.21-1.62,7.49-2.13,9.8-2.31,10.87s0,1.45.36,1.45c.72,0,1.91-.94,3.24-2.27l.47.9c-1.15,1.76-4,3.81-5.51,3.81-1.26,0-1.87-1-.93-5.22l2.08-9.54H166v-.32l1.05-1.15h2.16l.83-3.85a22.29,22.29,0,0,0,2.84-2l.32.18c-.43,1.44-1,3.78-1.4,5.65h4Z"/><path class="cls-2" d="M183,160.17c-1.8,2.41-4.07,3.56-5.15,3.56-.93,0-1.33-.93-.64-3.81.57-2.38,1.58-6.23,2.26-9.15.15-.68.11-1-.1-1a6.27,6.27,0,0,0-2.38,1.62l-.47-.94c1.69-1.84,4.14-3.38,5.29-3.38.9,0,.94,1.22.29,3.88s-1.55,6.23-2.19,8.79c-.26,1-.26,1.37,0,1.37s1.33-.51,2.59-1.84Zm1-18.86a2,2,0,0,1-1.91,2.09,1.54,1.54,0,0,1-1.58-1.62,2.1,2.1,0,0,1,2-2.13A1.49,1.49,0,0,1,184,141.31Z"/><path class="cls-2" d="M200.2,152.68a11.53,11.53,0,0,1-5,9.61,8.64,8.64,0,0,1-4.43,1.44c-3.42,0-4.82-2.73-4.82-5.61a11,11,0,0,1,5.8-10.08,9.06,9.06,0,0,1,3.7-1C198.44,147.07,200.2,149.05,200.2,152.68Zm-11.23,5c0,2.7,1,4.5,3,4.5,3.42,0,5.22-5.51,5.22-9.39,0-3-1.3-4.25-3-4.25C190.56,148.58,189,154,189,157.72Z"/><path class="cls-2" d="M219.39,160.06c-1.91,2.52-4.1,3.67-5.15,3.67s-1.47-.86-.79-3.81c.65-2.56,1.26-5.11,1.8-7.38s.43-3.13-.47-3.13c-1.19,0-4,2-6.41,5.76a9.36,9.36,0,0,0-1.22,3c-.36,1.4-.83,3.35-1.11,4.82a18.54,18.54,0,0,0-2.56.72l-.25-.25c1-3.92,2.05-8.31,3-12.31.25-1.12.11-1.44-.18-1.44s-1.3.79-2.2,1.66l-.5-.94c1.66-2.09,3.53-3.38,4.72-3.38,1,0,1.33,1.26.57,4.39l-.5,2.12c3.2-4.17,6.44-6.51,8.6-6.51,1.19,0,2.3.82,1.15,5.65-.47,2-1.15,4.75-1.69,7-.22,1-.22,1.4,0,1.4a6,6,0,0,0,2.66-1.94Z"/><path class="cls-2" d="M242.07,139.9c4.21,0,7,1.48,7,5,0,3.06-2.48,5-5.54,5.72,2.66.65,5.11,2.45,5.11,5.54,0,4.43-4.21,7.13-9.79,7.13h-9.57l.21-1c2.84-.25,3.24-.43,3.82-3.31l2.91-15c.47-2.59.11-2.81-2.84-3.06l.21-1Zm-5.87,18.94c-.5,2.66.36,3.2,3,3.2a5.8,5.8,0,0,0,6.16-5.9c0-3.64-2.78-4.83-5.87-4.83h-1.84Zm3.82-8.75c4.14,0,5.87-2.23,5.87-5.15s-2.27-3.85-4.29-3.85c-1.44,0-2,0-2.34,1.91l-1.37,7.09Z"/><path class="cls-2" d="M267.77,160.06c-1.76,2.38-4,3.67-5,3.67s-1.44-.82-.79-4.1l.5-2.48a19.92,19.92,0,0,1-4.32,4.85,6.57,6.57,0,0,1-3.71,1.73c-1.26,0-2.3-1.55-2.3-4.46a13.28,13.28,0,0,1,4-9.36,10.54,10.54,0,0,1,6.87-2.84,24.31,24.31,0,0,1,4.18.61c-.65,2.27-1.91,7.81-2.6,11.88-.17,1-.1,1.4.18,1.4.44,0,1.19-.47,2.49-1.8Zm-6.51-3a12.79,12.79,0,0,0,2.09-4.32,31.88,31.88,0,0,0,.79-3.52,7.1,7.1,0,0,0-2.74-.58c-4.25,0-6.23,5.47-6.23,10.15,0,1.44.4,2.38,1.12,2.38C257.41,161.18,259,160.06,261.26,157.07Z"/><path class="cls-2" d="M281.6,159.77c-2.2,2.52-4.79,4-7.27,4s-4.07-1.9-4.07-5.32a12,12,0,0,1,3.67-8.64,9.49,9.49,0,0,1,5.72-2.7c1.59,0,2.78.82,2.81,1.65a2.06,2.06,0,0,1-1.22,1.87.61.61,0,0,1-.83-.21,3.41,3.41,0,0,0-2.74-1.55c-2.73,0-4.39,4.54-4.39,8.78,0,2.63,1,4,2.67,4,1.9,0,4-1.62,5.11-2.73Z"/><path class="cls-2" d="M299.42,160.31c-1.77,2.63-3.32,3.42-4.25,3.42s-1.58-.65-2.81-3.38c-.83-1.84-1.65-3.71-2.3-5.36-1.48,1.69-2.27,2.62-2.52,3.78-.4,1.65-.58,2.77-.9,4.24a19,19,0,0,0-2.59.72l-.26-.21c1.52-6.91,3.75-17.32,4.68-22.32.22-1.26.18-1.51-2.44-1.66l.21-.9c2.92-.39,4.93-1.22,5.4-1.22s.4.36.22,1.08c-1.08,4.75-2.52,11.45-3.75,17,2-2.2,7.24-8.42,9.83-8.42,1,0,1.66.5,1.66,1.18a3.54,3.54,0,0,1-1.08,2.16c-.4.33-.58.36-.9.15a3.25,3.25,0,0,0-1.73-.79c-.79,0-2.84,2-4,3.34a64.66,64.66,0,0,0,2.77,6c.79,1.58,1.3,2.23,1.84,2.23s1.22-.47,2.34-1.83Z"/><path class="cls-2" d="M317.6,160c-1.77,2.44-4.11,3.67-5.11,3.67s-1.37-.87-.8-3.86c.29-1.36.47-2.15.65-3a26.64,26.64,0,0,1-5,5.29,6.59,6.59,0,0,1-3.49,1.52c-1.16,0-2.45-.76-1.44-5.19l1.8-7.41c.28-1.08.25-1.41,0-1.41a5.9,5.9,0,0,0-2.34,1.66l-.5-.9c1.73-1.91,4.07-3.38,5.18-3.38s1,1.11.4,3.88c-.62,2.38-1.26,5-1.77,7.17-.54,2.45-.32,3.13.4,3.13,1.26,0,3.38-1.87,5.22-4.21a14,14,0,0,0,2.63-5.22c.21-.83.57-2.31.86-3.85.72-.22,1.84-.62,2.59-.94h.4c-1.08,4.18-2.41,9.65-2.95,12.74-.11.87,0,1.23.25,1.23s1.19-.43,2.52-1.84Z"/><path class="cls-2" d="M326.63,147.5a13,13,0,0,1,3.28-.43c3.78,0,5.22,1.76,5.22,4.93a11.53,11.53,0,0,1-3.1,7.56,13.83,13.83,0,0,1-6.69,4.17,5.61,5.61,0,0,1-2.09-.36l-1,5.08c-.39,2-.25,2.37,1.51,2.52l1,.11-.14.93-8.46.43.18-.93c2.45-.43,2.7-.72,3.17-2.92,1.36-6.3,2.73-12.67,4-18.86a20.5,20.5,0,0,0-2.92,1.33l-.25-1a20.82,20.82,0,0,1,3.49-1.8l.4-1.65a10.58,10.58,0,0,1,2.66-2.09l.33.22Zm-2.8,13.39a2.89,2.89,0,0,0,2.19,1.19c2.56,0,6.08-4.83,6.08-9.43,0-3.17-1.69-4-3.81-4a8.24,8.24,0,0,0-2,.29C325.59,152.5,324.58,157.29,323.83,160.89Z"/><path class="cls-2" d="M367.85,139.11c-.39,1.66-.83,4.29-1.15,6.23l-1.12.07a9.57,9.57,0,0,0-.14-2c-.18-1.58-.61-2.16-3.89-2.16h-2.19L356,159c-.54,2.91-.25,3.09,3,3.34l-.22,1h-9.9l.25-1c3.06-.25,3.32-.46,3.86-3.34l3.38-17.68h-2.16c-2.88,0-3.49.47-4.14,1.41a14,14,0,0,0-1.62,2.77l-1.15-.11a62.65,62.65,0,0,0,1.47-6.23h.83c.36.83.76.79,1.73.79h13.82a2,2,0,0,0,1.87-.79Z"/><path class="cls-2" d="M378.54,152.68a11.55,11.55,0,0,1-5,9.61,8.67,8.67,0,0,1-4.43,1.44c-3.42,0-4.83-2.73-4.83-5.61a11,11,0,0,1,5.8-10.08,9.11,9.11,0,0,1,3.71-1C376.78,147.07,378.54,149.05,378.54,152.68Zm-11.23,5c0,2.7,1,4.5,3,4.5,3.42,0,5.22-5.51,5.22-9.39,0-3-1.29-4.25-3-4.25C368.9,148.58,367.31,154,367.31,157.72Z"/><path class="cls-2" d="M395.5,152.68a11.53,11.53,0,0,1-5,9.61,8.64,8.64,0,0,1-4.43,1.44c-3.42,0-4.82-2.73-4.82-5.61A10.94,10.94,0,0,1,387,148a9.06,9.06,0,0,1,3.7-1C393.74,147.07,395.5,149.05,395.5,152.68Zm-11.23,5c0,2.7,1,4.5,3,4.5,3.42,0,5.22-5.51,5.22-9.39,0-3-1.3-4.25-3-4.25C385.85,148.58,384.27,154,384.27,157.72Z"/><path class="cls-2" d="M404.86,160c-1.8,2.41-4.18,3.7-5.22,3.7s-1.44-.72-.72-4.17c1.3-6.16,2.7-12.67,3.85-18.22.29-1.44.18-1.58-1.11-1.69-.4,0-1.05-.11-1.33-.11l.21-.93a23.4,23.4,0,0,0,4.39-.9,3,3,0,0,1,1.08-.29c.33,0,.33.32.15,1.15-1.62,6.91-3.39,15.12-4.58,21.13-.21,1-.18,1.33.11,1.33s1.33-.5,2.63-1.91Z"/><path class="cls-2" d="M415.34,150.59c1.33-1.83,3.27-3.52,4.42-3.52s1.44,1.22,1.52,4.28c.07,2.63.07,5.9,0,7.88,2.27-3.56,4.9-7.63,7-11.55h.94c.25,3.85.64,8.39,1,12.42,1.73-2.13,5.22-6.84,5.26-9.07a3.88,3.88,0,0,0-.54-1.73.87.87,0,0,1-.11-.79,2.68,2.68,0,0,1,2.05-1.44c.9,0,1.37.82,1.37,2.05a6.55,6.55,0,0,1-.94,3.17c-1.62,3-5.33,7.66-8.31,11.44h-1c-.25-3.13-.61-7.59-1-11.19-2.34,3.92-5.18,8.06-7.13,11.19h-1c0-2.88,0-8.06-.26-11.88-.1-1.47-.25-2.16-.57-2.16s-1,.47-2.16,1.77Z"/><path class="cls-2" d="M447.59,160.17c-1.8,2.41-4.07,3.56-5.15,3.56s-1.33-.93-.64-3.81c.57-2.38,1.58-6.23,2.26-9.15.15-.68.11-1-.1-1a6.27,6.27,0,0,0-2.38,1.62l-.47-.94c1.69-1.84,4.14-3.38,5.29-3.38.9,0,.94,1.22.29,3.88s-1.55,6.23-2.19,8.79c-.26,1-.26,1.37,0,1.37s1.33-.51,2.59-1.84Zm1-18.86a2,2,0,0,1-1.91,2.09,1.54,1.54,0,0,1-1.58-1.62,2.1,2.1,0,0,1,2-2.13A1.49,1.49,0,0,1,448.6,141.31Z"/><path class="cls-2" d="M460.12,148.76c-.72.07-2.56.21-3.64.21-1.62,7.49-2.12,9.8-2.3,10.87s0,1.45.36,1.45c.72,0,1.91-.94,3.24-2.27l.47.9c-1.16,1.76-4,3.81-5.51,3.81-1.26,0-1.87-1-.94-5.22l2.09-9.54H451v-.32l1.05-1.15h2.15l.83-3.85a21.64,21.64,0,0,0,2.85-2l.32.18c-.43,1.44-1,3.78-1.4,5.65h4Z"/><path class="cls-2" d="M463.11,138.61a21.81,21.81,0,0,0,4.43-.9,2.78,2.78,0,0,1,1-.29c.29,0,.36.36.18,1.19-1,4.6-2.3,10.33-3.31,14.94,2.88-4,6.52-6.48,8.75-6.48,1.22,0,2.37.57,1.26,5.14-.51,2.24-1.19,5.26-1.77,7.53-.25,1-.21,1.37.08,1.37s1.18-.44,2.48-1.8l.54.86c-1.76,2.41-4.1,3.56-5.15,3.56s-1.33-1.11-.72-3.67,1.41-5.69,2-8.1c.51-2.05.22-2.59-.5-2.59-1.33,0-4,1.73-6.44,5.69a8.85,8.85,0,0,0-1.3,3c-.33,1.44-.79,3.56-1.08,5a20.53,20.53,0,0,0-2.59.68l-.25-.25c1.54-6.95,3.42-15.73,4.68-22.17.28-1.48.07-1.51-1-1.62-.4,0-1.19-.11-1.48-.11Z"/><path class="cls-2" d="M507.38,163.3H498.6l.18-1c2.59-.29,2.88-.61,2.7-2.16s-.47-3.27-.79-5.36h-7.56c-.61,1.15-1.84,3.24-2.66,4.86-1.12,2.12-.58,2.37,2.19,2.66l-.21,1H484.2l.26-1c2.3-.29,2.77-.5,4.53-3.45L500,139.62l1.19-.18c1.58,10.58,2.38,15.4,3.1,19.76.39,2.52.68,2.84,3.31,3.09ZM499.11,144H499c-1.83,3.35-3.67,6.62-5.14,9.36h6.58Z"/><path class="cls-2" d="M520.92,139.9c5.22,0,7.6,2.6,7.6,6,0,5.33-4.43,7.88-8.64,7.88a7.25,7.25,0,0,1-1.44-.18l-2.38-.54L515,159c-.5,2.69-.36,3.09,2.95,3.34l-.18,1H508l.21-1c2.81-.25,3.24-.46,3.78-3.45l2.85-14.62c.54-2.8.36-3-2.77-3.31l.21-1Zm-4.61,12a11.16,11.16,0,0,0,3,.46c2.59,0,6-1.54,6-6.44,0-3.06-1.66-4.86-4.57-4.86-1.88,0-2.49.51-2.74,2Z"/><path class="cls-2" d="M541.91,140.91c-3,.25-3.31.47-3.82,3.1l-2.88,15.08c-.54,2.74-.21,3,2.81,3.2l-.18,1h-9.61l.22-1c2.91-.25,3.24-.5,3.78-3.2L535.14,144c.51-2.67.22-2.85-2.81-3.1l.22-1h9.57Z"/><path class="cls-1" d="M666.81,155.78c-13.07,1.45-25,.75-34.86-4S614.34,138.15,610,123.35a2,2,0,0,1,2.17-2.56h0c12.7,1.56,24.07,4.61,33.58,9.72a53.58,53.58,0,0,1,22.59,22.31,2,2,0,0,1-.82,2.73,2.19,2.19,0,0,1-.73.22Zm-33.1-7.62c8.29,4,18.42,4.85,29.59,3.91a49.89,49.89,0,0,0-19.44-18c-8.26-4.44-18.06-7.25-29-8.85,4.07,11.77,10.62,19,18.88,22.94"/><path class="cls-1" d="M655.27,134.61a55.32,55.32,0,0,1,6.92,6.18,39.06,39.06,0,0,1,6.59,9.63c8.66-3.65,15.89-8.29,21.05-14.35a36.86,36.86,0,0,0,8.65-21.87,186.08,186.08,0,0,0-23.66,9,118.63,118.63,0,0,0-19.55,11.38m4,8.93a57.3,57.3,0,0,0-8.51-7.29h0a2.21,2.21,0,0,1-.41-.4,2,2,0,0,1,.36-2.83,120.46,120.46,0,0,1,22.44-13.44A194.7,194.7,0,0,1,700,109.51h0a2.43,2.43,0,0,1,.61-.08,2,2,0,0,1,2,2c-.17,11.25-3.69,20.12-9.73,27.22s-14.3,12.18-24.28,16.16l-.07,0a2,2,0,0,1-2.64-1.07,35.42,35.42,0,0,0-6.67-10.26"/><path class="cls-1" d="M650.72,131.49l8.91-5.37a67.71,67.71,0,0,0-20.54-12.76A108.44,108.44,0,0,0,615.42,107l5.32,14.86a93.64,93.64,0,0,1,14.51,3.34,105.4,105.4,0,0,1,15.47,6.26M664,128.21l-12.08,7.28a2,2,0,0,1-2,.11,101.72,101.72,0,0,0-15.84-6.52,91.34,91.34,0,0,0-14.94-3.36,2,2,0,0,1-1.77-1.33l-6.86-19.18h0a2.05,2.05,0,0,1-.1-1,2,2,0,0,1,2.27-1.72,118,118,0,0,1,28,7.09A70.89,70.89,0,0,1,664.26,125a2.32,2.32,0,0,1,.4.48,2,2,0,0,1-.68,2.77"/><path class="cls-1" d="M648.29,112.6c2.44,1.41,4.81,2.89,7.05,4.49a49.06,49.06,0,0,1,7.38,6.35,85.84,85.84,0,0,1,22.72-10.2l4.88-18.07a131.66,131.66,0,0,0-21.67,6.89,139.42,139.42,0,0,0-20.36,10.54m4.71,7.77a99,99,0,0,0-9.54-5.87,2,2,0,0,1-.78-.69,2,2,0,0,1,.58-2.8A146,146,0,0,1,667.1,98.34a135.89,135.89,0,0,1,25.64-7.81h0a2,2,0,0,1,2.34,2.5l-6,22.36a2,2,0,0,1-1.44,1.44,80.48,80.48,0,0,0-12.76,4.59,82.79,82.79,0,0,0-11.35,6.33h0a2,2,0,0,1-2.65-.37,43.23,43.23,0,0,0-7.84-7"/><path class="cls-1" d="M643.38,113.56l-2-.85a59.38,59.38,0,0,0-16.14-4.82,2,2,0,0,1-1.63-1.38l-7.4-21.64a2,2,0,0,1,1.26-2.56,2.13,2.13,0,0,1,.7-.11c9.16-.28,17.46,1,24.72,4.18a42.38,42.38,0,0,1,18.55,15.91,2,2,0,0,1-.57,2.79,1.91,1.91,0,0,1-.45.23,86.38,86.38,0,0,0-8.3,3.5,26.59,26.59,0,0,0-6.46,4.38,2,2,0,0,1-2.24.37m-.5-4.57,1,.39a31.94,31.94,0,0,1,6.44-4.17c2-1,4.1-1.89,6.32-2.76a37.89,37.89,0,0,0-15.37-12.38,50.81,50.81,0,0,0-20.34-3.88l6.12,17.9a63,63,0,0,1,15.88,4.9m17.5-3.68-2.34-.79a2,2,0,0,0,2.34.79"/><path class="cls-1" d="M650.69,89.76a43.28,43.28,0,0,1,4.94,4.71,33.69,33.69,0,0,1,4.26,5.92l13.23-5a67.35,67.35,0,0,0,5.46-12.52,73.91,73.91,0,0,0,2.52-10.55,81.54,81.54,0,0,0-16.25,6.94,72.89,72.89,0,0,0-14.16,10.45m1.93,7.39a42.33,42.33,0,0,0-6.2-5.62h0l-.2-.17a2,2,0,0,1,0-2.85,76.67,76.67,0,0,1,16.65-12.69A86.86,86.86,0,0,1,683,67.61a2,2,0,0,1,.77,0,2,2,0,0,1,1.76,2.25,78.39,78.39,0,0,1-3.13,14.34A70.57,70.57,0,0,1,676.28,98a2,2,0,0,1-1.07.94l-15.43,5.77a2,2,0,0,1-2.67-1,29,29,0,0,0-4.49-6.63"/><path class="cls-1" d="M634.14,82.12a35.81,35.81,0,0,1,6.7,1.84,29.19,29.19,0,0,1,4.95,2.43,30.58,30.58,0,0,1,4.81-5,25.38,25.38,0,0,1,5.14-3.29c-3.8-4.3-7.89-7-12.25-8.18a25.92,25.92,0,0,0-14.18.35Zm5.26,5.6a33.46,33.46,0,0,0-7-1.8h0a2,2,0,0,1-1.57-1.24l-6.09-14.94h0a.76.76,0,0,1,0-.11A2,2,0,0,1,626,67.07c6.55-2.22,12.78-2.7,18.62-1.06s11.15,5.36,15.95,11.55a2,2,0,0,1,.41.7,2,2,0,0,1-1.26,2.56,20.88,20.88,0,0,0-6.52,3.66A27.35,27.35,0,0,0,648,90.23l-.07.11a2,2,0,0,1-2.82.44,24.69,24.69,0,0,0-5.7-3.06"/><path class="cls-1" d="M652.72,69.36a39.92,39.92,0,0,1,3.51,3.34,27.65,27.65,0,0,1,3,3.87,46.81,46.81,0,0,1,6.7-3.78,48.8,48.8,0,0,1,7.61-2.74L679,58.39a89.59,89.59,0,0,0-13.45,4.3,78.63,78.63,0,0,0-12.79,6.67m.56,6.07a41.35,41.35,0,0,0-5.18-4.61h0a2,2,0,0,1-.42-.44,2,2,0,0,1,.49-2.8A82.54,82.54,0,0,1,664,59a96.09,96.09,0,0,1,18.12-5.38h0a2,2,0,0,1,1.23.15,2,2,0,0,1,1,2.67l-7.48,16.15a2,2,0,0,1-1.37,1.17,45.2,45.2,0,0,0-7.85,2.73,42.63,42.63,0,0,0-7.74,4.61,1.68,1.68,0,0,1-.42.27,2,2,0,0,1-2.69-.94,20.9,20.9,0,0,0-3.49-5"/><path class="cls-1" d="M643.05,63.77a30.38,30.38,0,0,1,3.54,1.52,21.7,21.7,0,0,1,3,1.8,40.69,40.69,0,0,1,5.73-4.73,47,47,0,0,1,6.78-3.81A43.66,43.66,0,0,0,659,50.46a37,37,0,0,0-5-7.39,70.33,70.33,0,0,0-6.35,10.1,90.9,90.9,0,0,0-4.61,10.6m1.71,5.12A29.14,29.14,0,0,0,639.87,67h0l-.07,0a2,2,0,0,1-1.25-2.55,99.32,99.32,0,0,1,5.52-13.06,73.54,73.54,0,0,1,8.21-12.58,2.09,2.09,0,0,1,.2-.22,2,2,0,0,1,2.85,0,41.31,41.31,0,0,1,7.24,10.07,48.84,48.84,0,0,1,3.8,10.5,2,2,0,0,1-1.16,2.44,43.36,43.36,0,0,0-7.65,4.12,35.85,35.85,0,0,0-6.35,5.5h0a2,2,0,0,1-2.85.12,15.94,15.94,0,0,0-3.6-2.42"/><path class="cls-3" d="M643.86,134.07c-8.26-4.44-18.06-7.25-29-8.85,4.08,11.77,10.63,19,18.89,22.94s18.42,4.85,29.59,3.91a49.89,49.89,0,0,0-19.44-18"/><path class="cls-3" d="M674.82,123.23a118.63,118.63,0,0,0-19.55,11.38,55.32,55.32,0,0,1,6.92,6.18,39.06,39.06,0,0,1,6.59,9.63c8.66-3.65,15.89-8.29,21.05-14.35a36.86,36.86,0,0,0,8.65-21.87,186.08,186.08,0,0,0-23.66,9"/><path class="cls-3" d="M662.72,123.44a85.84,85.84,0,0,1,22.72-10.2l4.88-18.07a131.66,131.66,0,0,0-21.67,6.89,139.42,139.42,0,0,0-20.36,10.54c2.44,1.41,4.81,2.89,7.05,4.49a49.06,49.06,0,0,1,7.38,6.35"/><path class="cls-3" d="M659.63,126.12a67.71,67.71,0,0,0-20.54-12.76A109,109,0,0,0,615.42,107l5.32,14.86a93.64,93.64,0,0,1,14.51,3.34,105.4,105.4,0,0,1,15.47,6.26Z"/><path class="cls-3" d="M643.83,109.38a31.94,31.94,0,0,1,6.44-4.17c1.94-1,4-1.86,6.18-2.71-.19-.34-.39-.68-.59-1a37.69,37.69,0,0,0-14.64-11.42,50.81,50.81,0,0,0-20.34-3.88l6.12,17.9a63.1,63.1,0,0,1,15.88,4.9Z"/><path class="cls-3" d="M655.63,94.47a33.53,33.53,0,0,1,3.56,4.74c.29.36.57.74.85,1.12l13.08-4.89a67.35,67.35,0,0,0,5.46-12.52,73.91,73.91,0,0,0,2.52-10.55,81.54,81.54,0,0,0-16.25,6.94,72.89,72.89,0,0,0-14.16,10.45,43.28,43.28,0,0,1,4.94,4.71"/><path class="cls-3" d="M645.79,86.39a30.58,30.58,0,0,1,4.81-5,25.75,25.75,0,0,1,4.89-3.17,20.93,20.93,0,0,0-1.5-2,24.4,24.4,0,0,0-10.5-6.33,25.92,25.92,0,0,0-14.18.35l4.83,11.87a35.81,35.81,0,0,1,6.7,1.84,29.19,29.19,0,0,1,4.95,2.43"/><path class="cls-3" d="M656.23,72.7l.63.7c.92.91,1.82,1.89,2.71,3a46.36,46.36,0,0,1,6.37-3.57,48.8,48.8,0,0,1,7.61-2.74L679,58.39a89.59,89.59,0,0,0-13.45,4.3,78.91,78.91,0,0,0-11.87,6.08l-.77.72a41.09,41.09,0,0,1,3.36,3.21"/><path class="cls-3" d="M651.17,65.57a41.67,41.67,0,0,1,4.12-3.21,47,47,0,0,1,6.78-3.81A43.66,43.66,0,0,0,659,50.46a37,37,0,0,0-5-7.39,70.33,70.33,0,0,0-6.35,10.1,90.9,90.9,0,0,0-4.61,10.6,30.38,30.38,0,0,1,3.54,1.52,20.49,20.49,0,0,1,2.63,1.56c.64-.44,1.29-.86,1.95-1.28"/><path class="cls-4" d="M643.86,134.07c-8.26-4.44-18.06-7.25-29-8.85,3,8.54,7.22,14.67,12.49,18.91a44.23,44.23,0,0,1-8.26-14.85c11,1.6,20.78,4.42,29,8.85a54.41,54.41,0,0,1,9.62,6.53,51.91,51.91,0,0,0-13.84-10.59"/><path class="cls-4" d="M674.82,123.23q-2.09,1-4.1,2c-1.29.73-2.71,1.31-3.94,2.09s-2.51,1.41-3.72,2.14h0l-7.79,5.15c1.37,1.07,2.29,1.73,3.59,2.94,10.76-7.76,26.44-14.41,39-18.65a31.26,31.26,0,0,0,.59-4.7c-3,.93-5.92,1.9-8.77,2.93l-.05.18c-.81.23-1.62.47-2.41.72q-6.48,2.41-12.43,5.2"/><path class="cls-4" d="M689.38,98.65l.94-3.48c-14.14,3.18-30.76,8.49-42,17.43,1.68,1,2,1.09,3.58,2.16a168.77,168.77,0,0,1,37.51-16.11"/><path class="cls-4" d="M659.63,126.12a67.71,67.71,0,0,0-20.54-12.76A109,109,0,0,0,615.42,107l5.32,14.86q1.47.21,2.94.48l-4-11.28a109.42,109.42,0,0,1,23.67,6.33,70.33,70.33,0,0,1,15.94,8.93Z"/><path class="cls-4" d="M654.2,99.52a37.46,37.46,0,0,0-13-9.45,50.81,50.81,0,0,0-20.34-3.88l6.12,17.9q1.61.25,3,.57l-4.93-14.4a50.64,50.64,0,0,1,20.34,3.88,36.81,36.81,0,0,1,8.76,5.38"/><path class="cls-4" d="M680.46,75.78a25,25,0,0,0,.64-3.41c-1,.31-2,.63-3,1a59.63,59.63,0,0,0-14.62,6.75,72.94,72.94,0,0,0-12.82,9.67,19.29,19.29,0,0,1,2.89,2.57c4.78-4.5,20.46-14.11,26.88-16.55"/><path class="cls-4" d="M655.09,77.63c-.34-.47-.71-.94-1.1-1.4a24.4,24.4,0,0,0-10.5-6.33,25.92,25.92,0,0,0-14.18.35l4.83,11.87c1,.17,1.9.37,2.81.6l-3.42-8.4A25.93,25.93,0,0,1,647.71,74a22.77,22.77,0,0,1,7.38,3.67"/><path class="cls-4" d="M654.87,71.31c2.53-2.42,17.78-8.34,22.69-9.91l1.4-3a90.1,90.1,0,0,0-12.73,4c-2.48,1.14-10.24,4.29-12,5.85-.46.29-1.06.81-1.51,1.11Z"/><path class="cls-4" d="M655.9,45.46c-1-1.67-.51-.78-1.89-2.39a70.33,70.33,0,0,0-6.35,10.1,90.9,90.9,0,0,0-4.61,10.6c1.27.46-.65-.6.44,0,.47.24.92.48,1.36.74.35-2.33,9.1-17.79,11-19"/></g></svg>