<?xml version="1.0" encoding="UTF-8"?><svg xmlns="http://www.w3.org/2000/svg" viewBox="0 0 64 64"><defs><style>.h{fill:#e16c25;}.i{fill:none;stroke:#0a96a4;stroke-miterlimit:10;stroke-width:2px;}</style></defs><g id="a"><g id="b"/><g id="c"/></g><g id="d"><g id="e"/></g><g id="f"><g id="g"/><g><path class="h" d="M34.4,42.14c.01-.2,.01-.39,.03-.59,.11-1.22-.07-2.42-.32-3.62-.25-1.22-.64-2.4-1.2-3.52-.38-.76-.82-1.49-1.45-2.09-.04-.04-.08-.12-.14-.09-.08,.03-.02,.1-.02,.16,.04,.6-.09,1.18-.32,1.73-.42,.99-1.03,1.86-1.64,2.73-.89,1.28-1.76,2.58-2.24,4.09-.33,1.04-.41,2.09-.32,3.17,.08,.83,.28,1.62,.55,2.4,.07,.21,.06,.41-.03,.6-.22,.44-.7,.52-1.06,.18-.29-.27-.54-.59-.8-.89-.62-.73-1.2-1.49-1.74-2.28-.65-.95-1.22-1.95-1.68-3-.52-1.16-.88-2.36-1.07-3.62-.25-1.69-.15-3.35,.36-4.98,.42-1.36,1.07-2.62,1.84-3.81,.86-1.33,1.85-2.56,2.86-3.78,.74-.89,1.46-1.79,2.14-2.73,.44-.61,.85-1.24,1.17-1.92,.27-.57,.45-1.16,.5-1.79,.02-.35-.03-.7-.13-1.04-.03-.12-.07-.24-.06-.37,.05-.53,.54-.8,1-.52,.49,.3,.95,.65,1.37,1.05,1.52,1.43,2.6,3.16,3.47,5.04,.6,1.29,1.08,2.63,1.45,4,.36,1.35,.65,2.72,.76,4.13,.02,.31,.05,.62,.08,.93,0,.04-.01,.09,.03,.11,.06,.03,.08-.03,.11-.07,.65-.84,1.18-1.73,1.36-2.8,.03-.2,.02-.4,.02-.6,0-.34,.17-.57,.47-.7,.22-.09,.4-.02,.56,.13,.55,.52,.98,1.14,1.36,1.79,.71,1.22,1.14,2.54,1.33,3.94,.14,1,.18,2.01,.11,3.02-.12,1.96-.71,3.79-1.6,5.53-.75,1.47-1.68,2.83-2.74,4.1-.33,.39-.66,.78-1,1.16-.29,.32-.58,.36-.92,.15-.28-.17-.41-.52-.29-.87,.18-.56,.36-1.11,.46-1.69,.3-1.89,.18-3.72-.69-5.46-.05-.1-.08-.26-.2-.24-.09,.01-.06,.17-.07,.27-.16,.87-.56,1.61-1.17,2.25-.15,.16-.29,.32-.44,.49l-.07-.05Z"/><path class="i" d="M32,2c-7.17,7.72-14.02,10.76-25.45,11.67,0,10.36,2.15,36.82,25.45,48.33,23.29-11.51,25.45-37.96,25.45-48.33-11.43-.91-18.28-3.95-25.45-11.67h0Z"/></g></g></svg>