<svg xmlns="http://www.w3.org/2000/svg" xmlns:xlink="http://www.w3.org/1999/xlink" viewBox="0 0 146.36 45"><defs><style>.cls-1{fill:none;}.cls-2{fill:#fff;}.cls-3{clip-path:url(#clip-path);}</style><clipPath id="clip-path"><rect class="cls-1" y="2.5" width="146.36" height="40"/></clipPath></defs><g id="footer_banner"><polygon class="cls-2" points="71.78 34.62 72.67 34.62 77.31 41.01 77.31 34.62 78.1 34.62 78.1 42.37 77.35 42.37 72.57 35.79 72.57 42.37 71.78 42.37 71.78 34.62 71.78 34.62"/><polygon class="cls-2" points="80.08 34.62 85.2 34.62 85.2 35.41 80.9 35.41 80.9 37.97 85.1 37.97 85.1 38.74 80.9 38.74 80.9 41.62 85.24 41.62 85.24 42.37 80.08 42.37 80.08 34.62 80.08 34.62"/><polygon class="cls-2" points="89.35 35.41 86.45 35.41 86.45 34.62 93.08 34.62 93.08 35.41 90.18 35.41 90.18 42.37 89.35 42.37 89.35 35.41 89.35 35.41"/><polygon class="cls-2" points="94.09 34.62 94.94 34.62 96.97 41.03 99.06 34.62 99.77 34.62 101.84 41.03 103.89 34.62 104.68 34.62 102.19 42.42 101.48 42.42 99.39 35.97 97.31 42.42 96.59 42.42 94.09 34.62 94.09 34.62"/><path class="cls-2" d="M112.4,38.5c0-2.09-1-3.22-3.09-3.22s-3.06,1.13-3.06,3.22,1,3.23,3.06,3.23,3.09-1.13,3.09-3.23Zm-7,0c0-2.76,1.41-4,3.89-4s3.91,1.23,3.91,4-1.42,4-3.91,4-3.89-1.24-3.89-4Z"/><path class="cls-2" d="M118.26,38.46c1.1,0,1.78-.33,1.78-1.56s-.66-1.51-1.81-1.51h-2.52v3.07Zm-.23.75h-2.32v3.16h-.8V34.62h3.34c1.8,0,2.62.73,2.62,2.26a2.07,2.07,0,0,1-2,2.3l1.87,3.19h-.88L118,39.21Z"/><polygon class="cls-2" points="124.98 38.26 123.43 39.96 123.43 42.37 122.62 42.37 122.62 34.62 123.43 34.62 123.43 38.9 127.35 34.62 128.3 34.62 125.52 37.67 128.68 42.37 127.75 42.37 124.98 38.26 124.98 38.26"/><path class="cls-2" d="M129.37,41.59l.42-.63a5,5,0,0,0,2.77.78c1.6,0,2.31-.44,2.31-1.51S134,39,132.56,38.72c-1.68-.29-2.8-.57-2.8-2.14s1-2.08,2.8-2.08a4.71,4.71,0,0,1,2.7.69l-.44.67a4.21,4.21,0,0,0-2.26-.61c-1.39,0-2,.39-2,1.31s.81,1.17,2.19,1.42c1.69.3,2.91.55,2.91,2.22s-1,2.28-3.09,2.28a5.59,5.59,0,0,1-3.21-.89Z"/><path class="cls-2" d="M143.77,2.6c-10.89,0-11.35,4.88-11.35,11.77v16.9H135V14.37c0-5.19-.21-9.35,8.78-9.35a22.23,22.23,0,0,1,2.59.14V2.71c-.79-.07-1.65-.11-2.59-.11Z"/><path class="cls-2" d="M16.73,20.27V3.16h2.62V20.32c0,4.94-.05,9.1,9,9.1s8.79-4.16,8.79-9.35V3.16h2.56V20.07c0,6.88-.46,11.76-11.35,11.76S16.73,27,16.73,20.27Z"/><path class="cls-2" d="M67,14.16V31.27H64.39V14.11c0-4.93,0-9.09-9-9.09s-8.79,4.16-8.79,9.35v16.9H44V14.37C44,7.48,44.5,2.6,55.4,2.6S67,7.48,67,14.16Z"/><polygon class="cls-2" points="72.37 3.22 74.29 3.22 74.29 31.27 72.37 31.27 72.37 3.22 72.37 3.22"/><path class="cls-2" d="M92.17,19C96.71,19,99,16.79,99,12.32s-2.43-6.59-6.9-6.59H81.51V19ZM79,3.22H92.13c6.51,0,9.47,3.23,9.47,9s-2.92,9.31-9.5,9.31H81.51v9.75H79v-28Z"/><g class="cls-3"><path class="cls-2" d="M107.09,15.24h19.12c-.26-5.6-.62-10.38-8.79-10.38-7.86,0-10,4.27-10.33,10.38Zm-2.57,1.9c0-8.27,2.37-14.64,13-14.64,10.95,0,11.31,7.34,11.25,15.1H107c0,6.84,1.75,11.92,10.64,11.92a13.44,13.44,0,0,0,9.2-3l1.43,1.9a16.49,16.49,0,0,1-10.63,3.39c-11.1,0-13.16-6.42-13.16-14.69Z"/><path class="cls-2" d="M1,37.36c10.89,0,11.36-4.88,11.36-11.77V3.16H9.74V25.59c0,5.19.2,9.35-8.79,9.35l-1,0v2.42l1,0Z"/></g><path class="cls-2" d="M140.61,28.07a1.55,1.55,0,1,0,1.54,1.55,1.55,1.55,0,0,0-1.54-1.55Zm0,3.32a1.78,1.78,0,1,1,1.77-1.77,1.77,1.77,0,0,1-1.77,1.77Z"/><path class="cls-2" d="M140.79,29.6c.28,0,.44-.08.44-.38s-.16-.36-.45-.36h-.62v.74Zm-.06.25h-.57v.79h-.27v-2h.9c.52,0,.72.21.72.61a.55.55,0,0,1-.49.62l.46.81h-.3l-.45-.79Z"/></g></svg>