<svg xmlns="http://www.w3.org/2000/svg" viewBox="0 0 680 460"><defs><style>.cls-1,.cls-2{fill:none;stroke-miterlimit:10;stroke-width:0.5px;}.cls-1{stroke:#4e535b;}.cls-2{stroke:#595a5c;}.cls-3{fill:#84b140;}.cls-4{fill:#fff;}</style></defs><g id="media_rectangle"><line class="cls-1" x1="200.83" y1="167.7" x2="53.4" y2="281.89"/><line class="cls-2" x1="212.52" y1="168.59" x2="620" y2="282.58"/><line class="cls-2" x1="200.83" y1="167.7" x2="428.42" y2="282.58"/><line class="cls-2" x1="200.83" y1="167.7" x2="241.14" y2="282.58"/><line class="cls-1" x1="465.28" y1="167.7" x2="620" y2="282.58"/><line class="cls-1" x1="453.27" y1="168.49" x2="52.31" y2="281.89"/><line class="cls-1" x1="465.28" y1="167.7" x2="241.14" y2="282.58"/><line class="cls-1" x1="465.28" y1="167.7" x2="424.8" y2="279.78"/><rect class="cls-3" x="524.73" y="275.31" width="151.3" height="15.13"/><rect class="cls-4" x="655.67" y="278.42" width="12.95" height="3.08"/><rect class="cls-4" x="653.74" y="284.26" width="3.39" height="3.23"/><rect class="cls-4" x="658.5" y="284.26" width="3.39" height="3.23"/><rect class="cls-4" x="663.25" y="284.26" width="3.39" height="3.23"/><rect class="cls-4" x="668.01" y="284.26" width="3.39" height="3.23"/><rect class="cls-4" x="560.61" y="278.56" width="3.57" height="3.57"/><rect class="cls-4" x="565.47" y="278.56" width="3.57" height="3.57"/><rect class="cls-4" x="570.33" y="278.56" width="3.57" height="3.57"/><rect class="cls-4" x="575.19" y="278.56" width="3.57" height="3.57"/><rect class="cls-4" x="580.05" y="278.56" width="3.57" height="3.57"/><rect class="cls-4" x="584.91" y="278.56" width="3.57" height="3.57"/><rect class="cls-4" x="560.61" y="283.49" width="3.57" height="3.57"/><rect class="cls-4" x="565.47" y="283.49" width="3.57" height="3.57"/><rect class="cls-4" x="570.33" y="283.49" width="3.57" height="3.57"/><rect class="cls-4" x="575.19" y="283.49" width="3.57" height="3.57"/><rect class="cls-4" x="580.05" y="283.49" width="3.57" height="3.57"/><rect class="cls-4" x="584.91" y="283.49" width="3.57" height="3.57"/><rect class="cls-4" x="529.59" y="278.56" width="3.57" height="3.57"/><rect class="cls-4" x="534.45" y="278.56" width="3.57" height="3.57"/><rect class="cls-4" x="539.31" y="278.56" width="3.57" height="3.57"/><rect class="cls-4" x="544.17" y="278.56" width="3.57" height="3.57"/><rect class="cls-4" x="549.03" y="278.56" width="3.57" height="3.57"/><rect class="cls-4" x="553.89" y="278.56" width="3.57" height="3.57"/><rect class="cls-4" x="529.59" y="283.49" width="3.57" height="3.57"/><rect class="cls-4" x="534.45" y="283.49" width="3.57" height="3.57"/><rect class="cls-4" x="539.31" y="283.49" width="3.57" height="3.57"/><rect class="cls-4" x="544.17" y="283.49" width="3.57" height="3.57"/><rect class="cls-4" x="549.03" y="283.49" width="3.57" height="3.57"/><rect class="cls-4" x="553.89" y="283.49" width="3.57" height="3.57"/><rect class="cls-4" x="591.7" y="278.56" width="3.57" height="3.57"/><rect class="cls-4" x="596.56" y="278.56" width="3.57" height="3.57"/><rect class="cls-4" x="601.42" y="278.56" width="3.57" height="3.57"/><rect class="cls-4" x="606.29" y="278.56" width="3.57" height="3.57"/><rect class="cls-4" x="611.15" y="278.56" width="3.57" height="3.57"/><rect class="cls-4" x="616.01" y="278.56" width="3.57" height="3.57"/><rect class="cls-4" x="591.7" y="283.49" width="3.57" height="3.57"/><rect class="cls-4" x="596.56" y="283.49" width="3.57" height="3.57"/><rect class="cls-4" x="601.42" y="283.49" width="3.57" height="3.57"/><rect class="cls-4" x="606.29" y="283.49" width="3.57" height="3.57"/><rect class="cls-4" x="611.15" y="283.49" width="3.57" height="3.57"/><rect class="cls-4" x="616.01" y="283.49" width="3.57" height="3.57"/><rect class="cls-4" x="622.8" y="278.56" width="3.57" height="3.57"/><rect class="cls-4" x="627.66" y="278.56" width="3.57" height="3.57"/><rect class="cls-4" x="632.52" y="278.56" width="3.57" height="3.57"/><rect class="cls-4" x="637.38" y="278.56" width="3.57" height="3.57"/><rect class="cls-4" x="642.24" y="278.56" width="3.57" height="3.57"/><rect class="cls-4" x="647.1" y="278.56" width="3.57" height="3.57"/><rect class="cls-4" x="622.8" y="283.49" width="3.57" height="3.57"/><rect class="cls-4" x="627.66" y="283.49" width="3.57" height="3.57"/><rect class="cls-4" x="632.52" y="283.49" width="3.57" height="3.57"/><rect class="cls-4" x="637.38" y="283.49" width="3.57" height="3.57"/><rect class="cls-4" x="642.24" y="283.49" width="3.57" height="3.57"/><rect class="cls-4" x="647.1" y="283.49" width="3.57" height="3.57"/><rect class="cls-3" x="359.98" y="275.31" width="151.3" height="15.13"/><rect class="cls-4" x="490.91" y="278.42" width="12.95" height="3.08"/><rect class="cls-4" x="488.99" y="284.26" width="3.39" height="3.23"/><rect class="cls-4" x="493.74" y="284.26" width="3.39" height="3.23"/><rect class="cls-4" x="498.5" y="284.26" width="3.39" height="3.23"/><rect class="cls-4" x="503.26" y="284.26" width="3.39" height="3.23"/><rect class="cls-4" x="395.86" y="278.56" width="3.57" height="3.57"/><rect class="cls-4" x="400.72" y="278.56" width="3.57" height="3.57"/><rect class="cls-4" x="405.58" y="278.56" width="3.57" height="3.57"/><rect class="cls-4" x="410.44" y="278.56" width="3.57" height="3.57"/><rect class="cls-4" x="415.3" y="278.56" width="3.57" height="3.57"/><rect class="cls-4" x="420.16" y="278.56" width="3.57" height="3.57"/><rect class="cls-4" x="395.86" y="283.49" width="3.57" height="3.57"/><rect class="cls-4" x="400.72" y="283.49" width="3.57" height="3.57"/><rect class="cls-4" x="405.58" y="283.49" width="3.57" height="3.57"/><rect class="cls-4" x="410.44" y="283.49" width="3.57" height="3.57"/><rect class="cls-4" x="415.3" y="283.49" width="3.57" height="3.57"/><rect class="cls-4" x="420.16" y="283.49" width="3.57" height="3.57"/><rect class="cls-4" x="364.84" y="278.56" width="3.57" height="3.57"/><rect class="cls-4" x="369.7" y="278.56" width="3.57" height="3.57"/><rect class="cls-4" x="374.56" y="278.56" width="3.57" height="3.57"/><rect class="cls-4" x="379.42" y="278.56" width="3.57" height="3.57"/><rect class="cls-4" x="384.28" y="278.56" width="3.57" height="3.57"/><rect class="cls-4" x="389.14" y="278.56" width="3.57" height="3.57"/><rect class="cls-4" x="364.84" y="283.49" width="3.57" height="3.57"/><rect class="cls-4" x="369.7" y="283.49" width="3.57" height="3.57"/><rect class="cls-4" x="374.56" y="283.49" width="3.57" height="3.57"/><rect class="cls-4" x="379.42" y="283.49" width="3.57" height="3.57"/><rect class="cls-4" x="384.28" y="283.49" width="3.57" height="3.57"/><rect class="cls-4" x="389.14" y="283.49" width="3.57" height="3.57"/><rect class="cls-4" x="426.95" y="278.56" width="3.57" height="3.57"/><rect class="cls-4" x="431.81" y="278.56" width="3.57" height="3.57"/><rect class="cls-4" x="436.67" y="278.56" width="3.57" height="3.57"/><rect class="cls-4" x="441.53" y="278.56" width="3.57" height="3.57"/><rect class="cls-4" x="446.39" y="278.56" width="3.57" height="3.57"/><rect class="cls-4" x="451.25" y="278.56" width="3.57" height="3.57"/><rect class="cls-4" x="426.95" y="283.49" width="3.57" height="3.57"/><rect class="cls-4" x="431.81" y="283.49" width="3.57" height="3.57"/><rect class="cls-4" x="436.67" y="283.49" width="3.57" height="3.57"/><rect class="cls-4" x="441.53" y="283.49" width="3.57" height="3.57"/><rect class="cls-4" x="446.39" y="283.49" width="3.57" height="3.57"/><rect class="cls-4" x="451.25" y="283.49" width="3.57" height="3.57"/><rect class="cls-4" x="458.04" y="278.56" width="3.57" height="3.57"/><rect class="cls-4" x="462.91" y="278.56" width="3.57" height="3.57"/><rect class="cls-4" x="467.77" y="278.56" width="3.57" height="3.57"/><rect class="cls-4" x="472.63" y="278.56" width="3.57" height="3.57"/><rect class="cls-4" x="477.49" y="278.56" width="3.57" height="3.57"/><rect class="cls-4" x="482.35" y="278.56" width="3.57" height="3.57"/><rect class="cls-4" x="458.04" y="283.49" width="3.57" height="3.57"/><rect class="cls-4" x="462.91" y="283.49" width="3.57" height="3.57"/><rect class="cls-4" x="467.77" y="283.49" width="3.57" height="3.57"/><rect class="cls-4" x="472.63" y="283.49" width="3.57" height="3.57"/><rect class="cls-4" x="477.49" y="283.49" width="3.57" height="3.57"/><rect class="cls-4" x="482.35" y="283.49" width="3.57" height="3.57"/><rect class="cls-3" x="167.03" y="275.31" width="151.3" height="15.13"/><rect class="cls-4" x="297.97" y="278.42" width="12.95" height="3.08"/><rect class="cls-4" x="296.04" y="284.26" width="3.39" height="3.23"/><rect class="cls-4" x="300.79" y="284.26" width="3.39" height="3.23"/><rect class="cls-4" x="305.55" y="284.26" width="3.39" height="3.23"/><rect class="cls-4" x="310.31" y="284.26" width="3.39" height="3.23"/><rect class="cls-4" x="202.91" y="278.56" width="3.57" height="3.57"/><rect class="cls-4" x="207.77" y="278.56" width="3.57" height="3.57"/><rect class="cls-4" x="212.63" y="278.56" width="3.57" height="3.57"/><rect class="cls-4" x="217.49" y="278.56" width="3.57" height="3.57"/><rect class="cls-4" x="222.35" y="278.56" width="3.57" height="3.57"/><rect class="cls-4" x="227.21" y="278.56" width="3.57" height="3.57"/><rect class="cls-4" x="202.91" y="283.49" width="3.57" height="3.57"/><rect class="cls-4" x="207.77" y="283.49" width="3.57" height="3.57"/><rect class="cls-4" x="212.63" y="283.49" width="3.57" height="3.57"/><rect class="cls-4" x="217.49" y="283.49" width="3.57" height="3.57"/><rect class="cls-4" x="222.35" y="283.49" width="3.57" height="3.57"/><rect class="cls-4" x="227.21" y="283.49" width="3.57" height="3.57"/><rect class="cls-4" x="171.89" y="278.56" width="3.57" height="3.57"/><rect class="cls-4" x="176.75" y="278.56" width="3.57" height="3.57"/><rect class="cls-4" x="181.61" y="278.56" width="3.57" height="3.57"/><rect class="cls-4" x="186.47" y="278.56" width="3.57" height="3.57"/><rect class="cls-4" x="191.33" y="278.56" width="3.57" height="3.57"/><rect class="cls-4" x="196.19" y="278.56" width="3.57" height="3.57"/><rect class="cls-4" x="171.89" y="283.49" width="3.57" height="3.57"/><rect class="cls-4" x="176.75" y="283.49" width="3.57" height="3.57"/><rect class="cls-4" x="181.61" y="283.49" width="3.57" height="3.57"/><rect class="cls-4" x="186.47" y="283.49" width="3.57" height="3.57"/><rect class="cls-4" x="191.33" y="283.49" width="3.57" height="3.57"/><rect class="cls-4" x="196.19" y="283.49" width="3.57" height="3.57"/><rect class="cls-4" x="234" y="278.56" width="3.57" height="3.57"/><rect class="cls-4" x="238.86" y="278.56" width="3.57" height="3.57"/><rect class="cls-4" x="243.72" y="278.56" width="3.57" height="3.57"/><rect class="cls-4" x="248.58" y="278.56" width="3.57" height="3.57"/><rect class="cls-4" x="253.45" y="278.56" width="3.57" height="3.57"/><rect class="cls-4" x="258.31" y="278.56" width="3.57" height="3.57"/><rect class="cls-4" x="234" y="283.49" width="3.57" height="3.57"/><rect class="cls-4" x="238.86" y="283.49" width="3.57" height="3.57"/><rect class="cls-4" x="243.72" y="283.49" width="3.57" height="3.57"/><rect class="cls-4" x="248.58" y="283.49" width="3.57" height="3.57"/><rect class="cls-4" x="253.45" y="283.49" width="3.57" height="3.57"/><rect class="cls-4" x="258.31" y="283.49" width="3.57" height="3.57"/><rect class="cls-4" x="265.1" y="278.56" width="3.57" height="3.57"/><rect class="cls-4" x="269.96" y="278.56" width="3.57" height="3.57"/><rect class="cls-4" x="274.82" y="278.56" width="3.57" height="3.57"/><rect class="cls-4" x="279.68" y="278.56" width="3.57" height="3.57"/><rect class="cls-4" x="284.54" y="278.56" width="3.57" height="3.57"/><rect class="cls-4" x="289.4" y="278.56" width="3.57" height="3.57"/><rect class="cls-4" x="265.1" y="283.49" width="3.57" height="3.57"/><rect class="cls-4" x="269.96" y="283.49" width="3.57" height="3.57"/><rect class="cls-4" x="274.82" y="283.49" width="3.57" height="3.57"/><rect class="cls-4" x="279.68" y="283.49" width="3.57" height="3.57"/><rect class="cls-4" x="284.54" y="283.49" width="3.57" height="3.57"/><rect class="cls-4" x="289.4" y="283.49" width="3.57" height="3.57"/><rect class="cls-3" x="2.28" y="275.31" width="151.3" height="15.13"/><rect class="cls-4" x="133.21" y="278.42" width="12.95" height="3.08"/><rect class="cls-4" x="131.29" y="284.26" width="3.39" height="3.23"/><rect class="cls-4" x="136.04" y="284.26" width="3.39" height="3.23"/><rect class="cls-4" x="140.8" y="284.26" width="3.39" height="3.23"/><rect class="cls-4" x="145.56" y="284.26" width="3.39" height="3.23"/><rect class="cls-4" x="38.16" y="278.56" width="3.57" height="3.57"/><rect class="cls-4" x="43.02" y="278.56" width="3.57" height="3.57"/><rect class="cls-4" x="47.88" y="278.56" width="3.57" height="3.57"/><rect class="cls-4" x="52.74" y="278.56" width="3.57" height="3.57"/><rect class="cls-4" x="57.6" y="278.56" width="3.57" height="3.57"/><rect class="cls-4" x="62.46" y="278.56" width="3.57" height="3.57"/><rect class="cls-4" x="38.16" y="283.49" width="3.57" height="3.57"/><rect class="cls-4" x="43.02" y="283.49" width="3.57" height="3.57"/><rect class="cls-4" x="47.88" y="283.49" width="3.57" height="3.57"/><rect class="cls-4" x="52.74" y="283.49" width="3.57" height="3.57"/><rect class="cls-4" x="57.6" y="283.49" width="3.57" height="3.57"/><rect class="cls-4" x="62.46" y="283.49" width="3.57" height="3.57"/><rect class="cls-4" x="7.14" y="278.56" width="3.57" height="3.57"/><rect class="cls-4" x="12" y="278.56" width="3.57" height="3.57"/><rect class="cls-4" x="16.86" y="278.56" width="3.57" height="3.57"/><rect class="cls-4" x="21.72" y="278.56" width="3.57" height="3.57"/><rect class="cls-4" x="26.58" y="278.56" width="3.57" height="3.57"/><rect class="cls-4" x="31.44" y="278.56" width="3.57" height="3.57"/><rect class="cls-4" x="7.14" y="283.49" width="3.57" height="3.57"/><rect class="cls-4" x="12" y="283.49" width="3.57" height="3.57"/><rect class="cls-4" x="16.86" y="283.49" width="3.57" height="3.57"/><rect class="cls-4" x="21.72" y="283.49" width="3.57" height="3.57"/><rect class="cls-4" x="26.58" y="283.49" width="3.57" height="3.57"/><rect class="cls-4" x="31.44" y="283.49" width="3.57" height="3.57"/><rect class="cls-4" x="69.25" y="278.56" width="3.57" height="3.57"/><rect class="cls-4" x="74.11" y="278.56" width="3.57" height="3.57"/><rect class="cls-4" x="78.97" y="278.56" width="3.57" height="3.57"/><rect class="cls-4" x="83.83" y="278.56" width="3.57" height="3.57"/><rect class="cls-4" x="88.69" y="278.56" width="3.57" height="3.57"/><rect class="cls-4" x="93.55" y="278.56" width="3.57" height="3.57"/><rect class="cls-4" x="69.25" y="283.49" width="3.57" height="3.57"/><rect class="cls-4" x="74.11" y="283.49" width="3.57" height="3.57"/><rect class="cls-4" x="78.97" y="283.49" width="3.57" height="3.57"/><rect class="cls-4" x="83.83" y="283.49" width="3.57" height="3.57"/><rect class="cls-4" x="88.69" y="283.49" width="3.57" height="3.57"/><rect class="cls-4" x="93.55" y="283.49" width="3.57" height="3.57"/><rect class="cls-4" x="100.34" y="278.56" width="3.57" height="3.57"/><rect class="cls-4" x="105.2" y="278.56" width="3.57" height="3.57"/><rect class="cls-4" x="110.06" y="278.56" width="3.57" height="3.57"/><rect class="cls-4" x="114.92" y="278.56" width="3.57" height="3.57"/><rect class="cls-4" x="119.78" y="278.56" width="3.57" height="3.57"/><rect class="cls-4" x="124.64" y="278.56" width="3.57" height="3.57"/><rect class="cls-4" x="100.34" y="283.49" width="3.57" height="3.57"/><rect class="cls-4" x="105.2" y="283.49" width="3.57" height="3.57"/><rect class="cls-4" x="110.06" y="283.49" width="3.57" height="3.57"/><rect class="cls-4" x="114.92" y="283.49" width="3.57" height="3.57"/><rect class="cls-4" x="119.78" y="283.49" width="3.57" height="3.57"/><rect class="cls-4" x="124.64" y="283.49" width="3.57" height="3.57"/><rect class="cls-3" x="389.45" y="160.15" width="150.97" height="15.1"/><rect class="cls-4" x="456.9" y="168.21" width="5.58" height="3.69"/><rect class="cls-4" x="456.9" y="163.5" width="5.58" height="3.69"/><rect class="cls-4" x="463.39" y="168.21" width="5.58" height="3.69"/><rect class="cls-4" x="463.39" y="163.5" width="5.58" height="3.69"/><rect class="cls-4" x="443.82" y="168.21" width="5.58" height="3.69"/><rect class="cls-4" x="443.82" y="163.5" width="5.58" height="3.69"/><rect class="cls-4" x="450.32" y="168.21" width="5.58" height="3.69"/><rect class="cls-4" x="450.32" y="163.5" width="5.58" height="3.69"/><rect class="cls-4" x="485.93" y="168.47" width="3.38" height="3.22"/><rect class="cls-4" x="491.53" y="168.47" width="3.38" height="3.22"/><rect class="cls-4" x="497.14" y="168.47" width="3.38" height="3.22"/><rect class="cls-4" x="502.74" y="168.47" width="3.38" height="3.22"/><rect class="cls-4" x="508.32" y="165.9" width="2.1" height="5.79"/><rect class="cls-4" x="426.77" y="168.53" width="6.13" height="3.69"/><rect class="cls-4" x="433.91" y="168.53" width="6.13" height="3.69"/><rect class="cls-4" x="412.41" y="168.53" width="6.13" height="3.69"/><rect class="cls-4" x="401.86" y="168.53" width="6.13" height="3.69"/><rect class="cls-4" x="419.55" y="168.53" width="6.13" height="3.69"/><rect class="cls-3" x="125.41" y="160.15" width="150.97" height="15.1"/><rect class="cls-4" x="192.86" y="168.21" width="5.58" height="3.69"/><rect class="cls-4" x="192.86" y="163.5" width="5.58" height="3.69"/><rect class="cls-4" x="199.36" y="168.21" width="5.58" height="3.69"/><rect class="cls-4" x="199.36" y="163.5" width="5.58" height="3.69"/><rect class="cls-4" x="179.78" y="168.21" width="5.58" height="3.69"/><rect class="cls-4" x="179.78" y="163.5" width="5.58" height="3.69"/><rect class="cls-4" x="186.29" y="168.21" width="5.58" height="3.69"/><rect class="cls-4" x="186.29" y="163.5" width="5.58" height="3.69"/><rect class="cls-4" x="221.89" y="168.47" width="3.38" height="3.22"/><rect class="cls-4" x="227.5" y="168.47" width="3.38" height="3.22"/><rect class="cls-4" x="233.1" y="168.47" width="3.38" height="3.22"/><rect class="cls-4" x="238.71" y="168.47" width="3.38" height="3.22"/><rect class="cls-4" x="244.28" y="165.9" width="2.1" height="5.79"/><rect class="cls-4" x="162.74" y="168.53" width="6.13" height="3.69"/><rect class="cls-4" x="169.88" y="168.53" width="6.13" height="3.69"/><rect class="cls-4" x="148.38" y="168.53" width="6.13" height="3.69"/><rect class="cls-4" x="137.82" y="168.53" width="6.13" height="3.69"/></g></svg>