<svg xmlns="http://www.w3.org/2000/svg" viewBox="0 0 680 460"><defs><style>.cls-1,.cls-2{fill:none;stroke-miterlimit:10;stroke-width:0.5px;}.cls-1{stroke:#4e535b;}.cls-2{stroke:#595a5c;}.cls-3{fill:#84b140;}.cls-4{fill:#fff;}</style></defs><g id="media_rectangle"><line class="cls-1" x1="199.77" y1="171.71" x2="52.34" y2="285.9"/><line class="cls-2" x1="211.46" y1="172.6" x2="618.94" y2="286.59"/><line class="cls-2" x1="199.77" y1="171.71" x2="427.37" y2="286.59"/><line class="cls-2" x1="199.77" y1="171.71" x2="240.08" y2="286.59"/><line class="cls-1" x1="464.22" y1="171.71" x2="618.94" y2="286.59"/><line class="cls-1" x1="452.21" y1="172.5" x2="51.25" y2="285.9"/><line class="cls-1" x1="464.22" y1="171.71" x2="240.08" y2="286.59"/><line class="cls-1" x1="464.22" y1="171.71" x2="423.74" y2="283.8"/><rect class="cls-3" x="523.67" y="279.32" width="151.3" height="15.13"/><rect class="cls-4" x="654.61" y="282.43" width="12.95" height="3.08"/><rect class="cls-4" x="652.68" y="288.28" width="3.39" height="3.23"/><rect class="cls-4" x="657.44" y="288.28" width="3.39" height="3.23"/><rect class="cls-4" x="662.19" y="288.28" width="3.39" height="3.23"/><rect class="cls-4" x="666.95" y="288.28" width="3.39" height="3.23"/><rect class="cls-4" x="559.55" y="282.57" width="3.57" height="3.57"/><rect class="cls-4" x="564.41" y="282.57" width="3.57" height="3.57"/><rect class="cls-4" x="569.27" y="282.57" width="3.57" height="3.57"/><rect class="cls-4" x="574.13" y="282.57" width="3.57" height="3.57"/><rect class="cls-4" x="578.99" y="282.57" width="3.57" height="3.57"/><rect class="cls-4" x="583.85" y="282.57" width="3.57" height="3.57"/><rect class="cls-4" x="559.55" y="287.51" width="3.57" height="3.57"/><rect class="cls-4" x="564.41" y="287.51" width="3.57" height="3.57"/><rect class="cls-4" x="569.27" y="287.51" width="3.57" height="3.57"/><rect class="cls-4" x="574.13" y="287.51" width="3.57" height="3.57"/><rect class="cls-4" x="578.99" y="287.51" width="3.57" height="3.57"/><rect class="cls-4" x="583.85" y="287.51" width="3.57" height="3.57"/><rect class="cls-4" x="528.53" y="282.57" width="3.57" height="3.57"/><rect class="cls-4" x="533.39" y="282.57" width="3.57" height="3.57"/><rect class="cls-4" x="538.25" y="282.57" width="3.57" height="3.57"/><rect class="cls-4" x="543.11" y="282.57" width="3.57" height="3.57"/><rect class="cls-4" x="547.97" y="282.57" width="3.57" height="3.57"/><rect class="cls-4" x="552.83" y="282.57" width="3.57" height="3.57"/><rect class="cls-4" x="528.53" y="287.51" width="3.57" height="3.57"/><rect class="cls-4" x="533.39" y="287.51" width="3.57" height="3.57"/><rect class="cls-4" x="538.25" y="287.51" width="3.57" height="3.57"/><rect class="cls-4" x="543.11" y="287.51" width="3.57" height="3.57"/><rect class="cls-4" x="547.97" y="287.51" width="3.57" height="3.57"/><rect class="cls-4" x="552.83" y="287.51" width="3.57" height="3.57"/><rect class="cls-4" x="590.64" y="282.57" width="3.57" height="3.57"/><rect class="cls-4" x="595.5" y="282.57" width="3.57" height="3.57"/><rect class="cls-4" x="600.36" y="282.57" width="3.57" height="3.57"/><rect class="cls-4" x="605.23" y="282.57" width="3.57" height="3.57"/><rect class="cls-4" x="610.09" y="282.57" width="3.57" height="3.57"/><rect class="cls-4" x="614.95" y="282.57" width="3.57" height="3.57"/><rect class="cls-4" x="590.64" y="287.51" width="3.57" height="3.57"/><rect class="cls-4" x="595.5" y="287.51" width="3.57" height="3.57"/><rect class="cls-4" x="600.36" y="287.51" width="3.57" height="3.57"/><rect class="cls-4" x="605.23" y="287.51" width="3.57" height="3.57"/><rect class="cls-4" x="610.09" y="287.51" width="3.57" height="3.57"/><rect class="cls-4" x="614.95" y="287.51" width="3.57" height="3.57"/><rect class="cls-4" x="621.74" y="282.57" width="3.57" height="3.57"/><rect class="cls-4" x="626.6" y="282.57" width="3.57" height="3.57"/><rect class="cls-4" x="631.46" y="282.57" width="3.57" height="3.57"/><rect class="cls-4" x="636.32" y="282.57" width="3.57" height="3.57"/><rect class="cls-4" x="641.18" y="282.57" width="3.57" height="3.57"/><rect class="cls-4" x="646.04" y="282.57" width="3.57" height="3.57"/><rect class="cls-4" x="621.74" y="287.51" width="3.57" height="3.57"/><rect class="cls-4" x="626.6" y="287.51" width="3.57" height="3.57"/><rect class="cls-4" x="631.46" y="287.51" width="3.57" height="3.57"/><rect class="cls-4" x="636.32" y="287.51" width="3.57" height="3.57"/><rect class="cls-4" x="641.18" y="287.51" width="3.57" height="3.57"/><rect class="cls-4" x="646.04" y="287.51" width="3.57" height="3.57"/><rect class="cls-3" x="358.92" y="279.32" width="151.3" height="15.13"/><rect class="cls-4" x="489.85" y="282.43" width="12.95" height="3.08"/><rect class="cls-4" x="487.93" y="288.28" width="3.39" height="3.23"/><rect class="cls-4" x="492.68" y="288.28" width="3.39" height="3.23"/><rect class="cls-4" x="497.44" y="288.28" width="3.39" height="3.23"/><rect class="cls-4" x="502.2" y="288.28" width="3.39" height="3.23"/><rect class="cls-4" x="394.8" y="282.57" width="3.57" height="3.57"/><rect class="cls-4" x="399.66" y="282.57" width="3.57" height="3.57"/><rect class="cls-4" x="404.52" y="282.57" width="3.57" height="3.57"/><rect class="cls-4" x="409.38" y="282.57" width="3.57" height="3.57"/><rect class="cls-4" x="414.24" y="282.57" width="3.57" height="3.57"/><rect class="cls-4" x="419.1" y="282.57" width="3.57" height="3.57"/><rect class="cls-4" x="394.8" y="287.51" width="3.57" height="3.57"/><rect class="cls-4" x="399.66" y="287.51" width="3.57" height="3.57"/><rect class="cls-4" x="404.52" y="287.51" width="3.57" height="3.57"/><rect class="cls-4" x="409.38" y="287.51" width="3.57" height="3.57"/><rect class="cls-4" x="414.24" y="287.51" width="3.57" height="3.57"/><rect class="cls-4" x="419.1" y="287.51" width="3.57" height="3.57"/><rect class="cls-4" x="363.78" y="282.57" width="3.57" height="3.57"/><rect class="cls-4" x="368.64" y="282.57" width="3.57" height="3.57"/><rect class="cls-4" x="373.5" y="282.57" width="3.57" height="3.57"/><rect class="cls-4" x="378.36" y="282.57" width="3.57" height="3.57"/><rect class="cls-4" x="383.22" y="282.57" width="3.57" height="3.57"/><rect class="cls-4" x="388.08" y="282.57" width="3.57" height="3.57"/><rect class="cls-4" x="363.78" y="287.51" width="3.57" height="3.57"/><rect class="cls-4" x="368.64" y="287.51" width="3.57" height="3.57"/><rect class="cls-4" x="373.5" y="287.51" width="3.57" height="3.57"/><rect class="cls-4" x="378.36" y="287.51" width="3.57" height="3.57"/><rect class="cls-4" x="383.22" y="287.51" width="3.57" height="3.57"/><rect class="cls-4" x="388.08" y="287.51" width="3.57" height="3.57"/><rect class="cls-4" x="425.89" y="282.57" width="3.57" height="3.57"/><rect class="cls-4" x="430.75" y="282.57" width="3.57" height="3.57"/><rect class="cls-4" x="435.61" y="282.57" width="3.57" height="3.57"/><rect class="cls-4" x="440.47" y="282.57" width="3.57" height="3.57"/><rect class="cls-4" x="445.33" y="282.57" width="3.57" height="3.57"/><rect class="cls-4" x="450.19" y="282.57" width="3.57" height="3.57"/><rect class="cls-4" x="425.89" y="287.51" width="3.57" height="3.57"/><rect class="cls-4" x="430.75" y="287.51" width="3.57" height="3.57"/><rect class="cls-4" x="435.61" y="287.51" width="3.57" height="3.57"/><rect class="cls-4" x="440.47" y="287.51" width="3.57" height="3.57"/><rect class="cls-4" x="445.33" y="287.51" width="3.57" height="3.57"/><rect class="cls-4" x="450.19" y="287.51" width="3.57" height="3.57"/><rect class="cls-4" x="456.98" y="282.57" width="3.57" height="3.57"/><rect class="cls-4" x="461.85" y="282.57" width="3.57" height="3.57"/><rect class="cls-4" x="466.71" y="282.57" width="3.57" height="3.57"/><rect class="cls-4" x="471.57" y="282.57" width="3.57" height="3.57"/><rect class="cls-4" x="476.43" y="282.57" width="3.57" height="3.57"/><rect class="cls-4" x="481.29" y="282.57" width="3.57" height="3.57"/><rect class="cls-4" x="456.98" y="287.51" width="3.57" height="3.57"/><rect class="cls-4" x="461.85" y="287.51" width="3.57" height="3.57"/><rect class="cls-4" x="466.71" y="287.51" width="3.57" height="3.57"/><rect class="cls-4" x="471.57" y="287.51" width="3.57" height="3.57"/><rect class="cls-4" x="476.43" y="287.51" width="3.57" height="3.57"/><rect class="cls-4" x="481.29" y="287.51" width="3.57" height="3.57"/><rect class="cls-3" x="165.97" y="279.32" width="151.3" height="15.13"/><rect class="cls-4" x="296.91" y="282.43" width="12.95" height="3.08"/><rect class="cls-4" x="294.98" y="288.28" width="3.39" height="3.23"/><rect class="cls-4" x="299.73" y="288.28" width="3.39" height="3.23"/><rect class="cls-4" x="304.49" y="288.28" width="3.39" height="3.23"/><rect class="cls-4" x="309.25" y="288.28" width="3.39" height="3.23"/><rect class="cls-4" x="201.85" y="282.57" width="3.57" height="3.57"/><rect class="cls-4" x="206.71" y="282.57" width="3.57" height="3.57"/><rect class="cls-4" x="211.57" y="282.57" width="3.57" height="3.57"/><rect class="cls-4" x="216.43" y="282.57" width="3.57" height="3.57"/><rect class="cls-4" x="221.29" y="282.57" width="3.57" height="3.57"/><rect class="cls-4" x="226.15" y="282.57" width="3.57" height="3.57"/><rect class="cls-4" x="201.85" y="287.51" width="3.57" height="3.57"/><rect class="cls-4" x="206.71" y="287.51" width="3.57" height="3.57"/><rect class="cls-4" x="211.57" y="287.51" width="3.57" height="3.57"/><rect class="cls-4" x="216.43" y="287.51" width="3.57" height="3.57"/><rect class="cls-4" x="221.29" y="287.51" width="3.57" height="3.57"/><rect class="cls-4" x="226.15" y="287.51" width="3.57" height="3.57"/><rect class="cls-4" x="170.83" y="282.57" width="3.57" height="3.57"/><rect class="cls-4" x="175.69" y="282.57" width="3.57" height="3.57"/><rect class="cls-4" x="180.55" y="282.57" width="3.57" height="3.57"/><rect class="cls-4" x="185.41" y="282.57" width="3.57" height="3.57"/><rect class="cls-4" x="190.27" y="282.57" width="3.57" height="3.57"/><rect class="cls-4" x="195.13" y="282.57" width="3.57" height="3.57"/><rect class="cls-4" x="170.83" y="287.51" width="3.57" height="3.57"/><rect class="cls-4" x="175.69" y="287.51" width="3.57" height="3.57"/><rect class="cls-4" x="180.55" y="287.51" width="3.57" height="3.57"/><rect class="cls-4" x="185.41" y="287.51" width="3.57" height="3.57"/><rect class="cls-4" x="190.27" y="287.51" width="3.57" height="3.57"/><rect class="cls-4" x="195.13" y="287.51" width="3.57" height="3.57"/><rect class="cls-4" x="232.94" y="282.57" width="3.57" height="3.57"/><rect class="cls-4" x="237.8" y="282.57" width="3.57" height="3.57"/><rect class="cls-4" x="242.66" y="282.57" width="3.57" height="3.57"/><rect class="cls-4" x="247.53" y="282.57" width="3.57" height="3.57"/><rect class="cls-4" x="252.39" y="282.57" width="3.57" height="3.57"/><rect class="cls-4" x="257.25" y="282.57" width="3.57" height="3.57"/><rect class="cls-4" x="232.94" y="287.51" width="3.57" height="3.57"/><rect class="cls-4" x="237.8" y="287.51" width="3.57" height="3.57"/><rect class="cls-4" x="242.66" y="287.51" width="3.57" height="3.57"/><rect class="cls-4" x="247.53" y="287.51" width="3.57" height="3.57"/><rect class="cls-4" x="252.39" y="287.51" width="3.57" height="3.57"/><rect class="cls-4" x="257.25" y="287.51" width="3.57" height="3.57"/><rect class="cls-4" x="264.04" y="282.57" width="3.57" height="3.57"/><rect class="cls-4" x="268.9" y="282.57" width="3.57" height="3.57"/><rect class="cls-4" x="273.76" y="282.57" width="3.57" height="3.57"/><rect class="cls-4" x="278.62" y="282.57" width="3.57" height="3.57"/><rect class="cls-4" x="283.48" y="282.57" width="3.57" height="3.57"/><rect class="cls-4" x="288.34" y="282.57" width="3.57" height="3.57"/><rect class="cls-4" x="264.04" y="287.51" width="3.57" height="3.57"/><rect class="cls-4" x="268.9" y="287.51" width="3.57" height="3.57"/><rect class="cls-4" x="273.76" y="287.51" width="3.57" height="3.57"/><rect class="cls-4" x="278.62" y="287.51" width="3.57" height="3.57"/><rect class="cls-4" x="283.48" y="287.51" width="3.57" height="3.57"/><rect class="cls-4" x="288.34" y="287.51" width="3.57" height="3.57"/><rect class="cls-3" x="1.22" y="279.32" width="151.3" height="15.13"/><rect class="cls-4" x="132.15" y="282.43" width="12.95" height="3.08"/><rect class="cls-4" x="130.23" y="288.28" width="3.39" height="3.23"/><rect class="cls-4" x="134.98" y="288.28" width="3.39" height="3.23"/><rect class="cls-4" x="139.74" y="288.28" width="3.39" height="3.23"/><rect class="cls-4" x="144.5" y="288.28" width="3.39" height="3.23"/><rect class="cls-4" x="37.1" y="282.57" width="3.57" height="3.57"/><rect class="cls-4" x="41.96" y="282.57" width="3.57" height="3.57"/><rect class="cls-4" x="46.82" y="282.57" width="3.57" height="3.57"/><rect class="cls-4" x="51.68" y="282.57" width="3.57" height="3.57"/><rect class="cls-4" x="56.54" y="282.57" width="3.57" height="3.57"/><rect class="cls-4" x="61.4" y="282.57" width="3.57" height="3.57"/><rect class="cls-4" x="37.1" y="287.51" width="3.57" height="3.57"/><rect class="cls-4" x="41.96" y="287.51" width="3.57" height="3.57"/><rect class="cls-4" x="46.82" y="287.51" width="3.57" height="3.57"/><rect class="cls-4" x="51.68" y="287.51" width="3.57" height="3.57"/><rect class="cls-4" x="56.54" y="287.51" width="3.57" height="3.57"/><rect class="cls-4" x="61.4" y="287.51" width="3.57" height="3.57"/><rect class="cls-4" x="6.08" y="282.57" width="3.57" height="3.57"/><rect class="cls-4" x="10.94" y="282.57" width="3.57" height="3.57"/><rect class="cls-4" x="15.8" y="282.57" width="3.57" height="3.57"/><rect class="cls-4" x="20.66" y="282.57" width="3.57" height="3.57"/><rect class="cls-4" x="25.52" y="282.57" width="3.57" height="3.57"/><rect class="cls-4" x="30.38" y="282.57" width="3.57" height="3.57"/><rect class="cls-4" x="6.08" y="287.51" width="3.57" height="3.57"/><rect class="cls-4" x="10.94" y="287.51" width="3.57" height="3.57"/><rect class="cls-4" x="15.8" y="287.51" width="3.57" height="3.57"/><rect class="cls-4" x="20.66" y="287.51" width="3.57" height="3.57"/><rect class="cls-4" x="25.52" y="287.51" width="3.57" height="3.57"/><rect class="cls-4" x="30.38" y="287.51" width="3.57" height="3.57"/><rect class="cls-4" x="68.19" y="282.57" width="3.57" height="3.57"/><rect class="cls-4" x="73.05" y="282.57" width="3.57" height="3.57"/><rect class="cls-4" x="77.91" y="282.57" width="3.57" height="3.57"/><rect class="cls-4" x="82.77" y="282.57" width="3.57" height="3.57"/><rect class="cls-4" x="87.63" y="282.57" width="3.57" height="3.57"/><rect class="cls-4" x="92.49" y="282.57" width="3.57" height="3.57"/><rect class="cls-4" x="68.19" y="287.51" width="3.57" height="3.57"/><rect class="cls-4" x="73.05" y="287.51" width="3.57" height="3.57"/><rect class="cls-4" x="77.91" y="287.51" width="3.57" height="3.57"/><rect class="cls-4" x="82.77" y="287.51" width="3.57" height="3.57"/><rect class="cls-4" x="87.63" y="287.51" width="3.57" height="3.57"/><rect class="cls-4" x="92.49" y="287.51" width="3.57" height="3.57"/><rect class="cls-4" x="99.28" y="282.57" width="3.57" height="3.57"/><rect class="cls-4" x="104.14" y="282.57" width="3.57" height="3.57"/><rect class="cls-4" x="109.01" y="282.57" width="3.57" height="3.57"/><rect class="cls-4" x="113.87" y="282.57" width="3.57" height="3.57"/><rect class="cls-4" x="118.73" y="282.57" width="3.57" height="3.57"/><rect class="cls-4" x="123.59" y="282.57" width="3.57" height="3.57"/><rect class="cls-4" x="99.28" y="287.51" width="3.57" height="3.57"/><rect class="cls-4" x="104.14" y="287.51" width="3.57" height="3.57"/><rect class="cls-4" x="109.01" y="287.51" width="3.57" height="3.57"/><rect class="cls-4" x="113.87" y="287.51" width="3.57" height="3.57"/><rect class="cls-4" x="118.73" y="287.51" width="3.57" height="3.57"/><rect class="cls-4" x="123.59" y="287.51" width="3.57" height="3.57"/><rect class="cls-3" x="388.39" y="164.16" width="150.97" height="15.1"/><rect class="cls-4" x="455.84" y="172.22" width="5.58" height="3.69"/><rect class="cls-4" x="455.84" y="167.51" width="5.58" height="3.69"/><rect class="cls-4" x="462.33" y="172.22" width="5.58" height="3.69"/><rect class="cls-4" x="462.33" y="167.51" width="5.58" height="3.69"/><rect class="cls-4" x="442.76" y="172.22" width="5.58" height="3.69"/><rect class="cls-4" x="442.76" y="167.51" width="5.58" height="3.69"/><rect class="cls-4" x="449.26" y="172.22" width="5.58" height="3.69"/><rect class="cls-4" x="449.26" y="167.51" width="5.58" height="3.69"/><rect class="cls-4" x="484.87" y="172.48" width="3.38" height="3.22"/><rect class="cls-4" x="490.47" y="172.48" width="3.38" height="3.22"/><rect class="cls-4" x="496.08" y="172.48" width="3.38" height="3.22"/><rect class="cls-4" x="501.68" y="172.48" width="3.38" height="3.22"/><rect class="cls-4" x="507.26" y="169.91" width="2.1" height="5.79"/><rect class="cls-4" x="425.71" y="172.54" width="6.13" height="3.69"/><rect class="cls-4" x="432.85" y="172.54" width="6.13" height="3.69"/><rect class="cls-4" x="411.35" y="172.54" width="6.13" height="3.69"/><rect class="cls-4" x="400.8" y="172.54" width="6.13" height="3.69"/><rect class="cls-4" x="418.49" y="172.54" width="6.13" height="3.69"/><rect class="cls-3" x="124.35" y="164.16" width="150.97" height="15.1"/><rect class="cls-4" x="191.8" y="172.22" width="5.58" height="3.69"/><rect class="cls-4" x="191.8" y="167.51" width="5.58" height="3.69"/><rect class="cls-4" x="198.3" y="172.22" width="5.58" height="3.69"/><rect class="cls-4" x="198.3" y="167.51" width="5.58" height="3.69"/><rect class="cls-4" x="178.73" y="172.22" width="5.58" height="3.69"/><rect class="cls-4" x="178.73" y="167.51" width="5.58" height="3.69"/><rect class="cls-4" x="185.23" y="172.22" width="5.58" height="3.69"/><rect class="cls-4" x="185.23" y="167.51" width="5.58" height="3.69"/><rect class="cls-4" x="220.83" y="172.48" width="3.38" height="3.22"/><rect class="cls-4" x="226.44" y="172.48" width="3.38" height="3.22"/><rect class="cls-4" x="232.04" y="172.48" width="3.38" height="3.22"/><rect class="cls-4" x="237.65" y="172.48" width="3.38" height="3.22"/><rect class="cls-4" x="243.22" y="169.91" width="2.1" height="5.79"/><rect class="cls-4" x="161.68" y="172.54" width="6.13" height="3.69"/><rect class="cls-4" x="168.82" y="172.54" width="6.13" height="3.69"/><rect class="cls-4" x="147.32" y="172.54" width="6.13" height="3.69"/><rect class="cls-4" x="136.76" y="172.54" width="6.13" height="3.69"/></g></svg>