<svg xmlns="http://www.w3.org/2000/svg" viewBox="0 0 680 460"><defs><style>.cls-1,.cls-2{fill:none;stroke-miterlimit:10;stroke-width:0.5px;}.cls-1{stroke:#4e535b;}.cls-2{stroke:#595a5c;}.cls-3{fill:#84b140;}.cls-4{fill:#fff;}</style></defs><g id="media_rectangle"><line class="cls-1" x1="201.49" y1="171.87" x2="54.06" y2="286.06"/><line class="cls-2" x1="213.18" y1="172.76" x2="620.66" y2="286.76"/><line class="cls-2" x1="201.49" y1="171.87" x2="429.09" y2="286.76"/><line class="cls-2" x1="201.49" y1="171.87" x2="241.8" y2="286.76"/><line class="cls-1" x1="465.94" y1="171.87" x2="620.66" y2="286.76"/><line class="cls-1" x1="453.93" y1="172.66" x2="52.97" y2="286.06"/><line class="cls-1" x1="465.94" y1="171.87" x2="241.8" y2="286.76"/><line class="cls-1" x1="465.94" y1="171.87" x2="425.46" y2="283.96"/><rect class="cls-3" x="525.39" y="279.49" width="151.3" height="15.13"/><rect class="cls-4" x="656.33" y="282.6" width="12.95" height="3.08"/><rect class="cls-4" x="654.4" y="288.44" width="3.39" height="3.23"/><rect class="cls-4" x="659.16" y="288.44" width="3.39" height="3.23"/><rect class="cls-4" x="663.91" y="288.44" width="3.39" height="3.23"/><rect class="cls-4" x="668.67" y="288.44" width="3.39" height="3.23"/><rect class="cls-4" x="561.27" y="282.73" width="3.57" height="3.57"/><rect class="cls-4" x="566.14" y="282.73" width="3.57" height="3.57"/><rect class="cls-4" x="570.99" y="282.73" width="3.57" height="3.57"/><rect class="cls-4" x="575.86" y="282.73" width="3.57" height="3.57"/><rect class="cls-4" x="580.72" y="282.73" width="3.57" height="3.57"/><rect class="cls-4" x="585.58" y="282.73" width="3.57" height="3.57"/><rect class="cls-4" x="561.27" y="287.67" width="3.57" height="3.57"/><rect class="cls-4" x="566.14" y="287.67" width="3.57" height="3.57"/><rect class="cls-4" x="570.99" y="287.67" width="3.57" height="3.57"/><rect class="cls-4" x="575.86" y="287.67" width="3.57" height="3.57"/><rect class="cls-4" x="580.72" y="287.67" width="3.57" height="3.57"/><rect class="cls-4" x="585.58" y="287.67" width="3.57" height="3.57"/><rect class="cls-4" x="530.25" y="282.73" width="3.57" height="3.57"/><rect class="cls-4" x="535.11" y="282.73" width="3.57" height="3.57"/><rect class="cls-4" x="539.97" y="282.73" width="3.57" height="3.57"/><rect class="cls-4" x="544.83" y="282.73" width="3.57" height="3.57"/><rect class="cls-4" x="549.69" y="282.73" width="3.57" height="3.57"/><rect class="cls-4" x="554.56" y="282.73" width="3.57" height="3.57"/><rect class="cls-4" x="530.25" y="287.67" width="3.57" height="3.57"/><rect class="cls-4" x="535.11" y="287.67" width="3.57" height="3.57"/><rect class="cls-4" x="539.97" y="287.67" width="3.57" height="3.57"/><rect class="cls-4" x="544.83" y="287.67" width="3.57" height="3.57"/><rect class="cls-4" x="549.69" y="287.67" width="3.57" height="3.57"/><rect class="cls-4" x="554.56" y="287.67" width="3.57" height="3.57"/><rect class="cls-4" x="592.37" y="282.73" width="3.57" height="3.57"/><rect class="cls-4" x="597.23" y="282.73" width="3.57" height="3.57"/><rect class="cls-4" x="602.09" y="282.73" width="3.57" height="3.57"/><rect class="cls-4" x="606.95" y="282.73" width="3.57" height="3.57"/><rect class="cls-4" x="611.81" y="282.73" width="3.57" height="3.57"/><rect class="cls-4" x="616.67" y="282.73" width="3.57" height="3.57"/><rect class="cls-4" x="592.37" y="287.67" width="3.57" height="3.57"/><rect class="cls-4" x="597.23" y="287.67" width="3.57" height="3.57"/><rect class="cls-4" x="602.09" y="287.67" width="3.57" height="3.57"/><rect class="cls-4" x="606.95" y="287.67" width="3.57" height="3.57"/><rect class="cls-4" x="611.81" y="287.67" width="3.57" height="3.57"/><rect class="cls-4" x="616.67" y="287.67" width="3.57" height="3.57"/><rect class="cls-4" x="623.46" y="282.73" width="3.57" height="3.57"/><rect class="cls-4" x="628.32" y="282.73" width="3.57" height="3.57"/><rect class="cls-4" x="633.18" y="282.73" width="3.57" height="3.57"/><rect class="cls-4" x="638.04" y="282.73" width="3.57" height="3.57"/><rect class="cls-4" x="642.9" y="282.73" width="3.57" height="3.57"/><rect class="cls-4" x="647.76" y="282.73" width="3.57" height="3.57"/><rect class="cls-4" x="623.46" y="287.67" width="3.57" height="3.57"/><rect class="cls-4" x="628.32" y="287.67" width="3.57" height="3.57"/><rect class="cls-4" x="633.18" y="287.67" width="3.57" height="3.57"/><rect class="cls-4" x="638.04" y="287.67" width="3.57" height="3.57"/><rect class="cls-4" x="642.9" y="287.67" width="3.57" height="3.57"/><rect class="cls-4" x="647.76" y="287.67" width="3.57" height="3.57"/><rect class="cls-3" x="360.64" y="279.49" width="151.3" height="15.13"/><rect class="cls-4" x="491.57" y="282.6" width="12.95" height="3.08"/><rect class="cls-4" x="489.65" y="288.44" width="3.39" height="3.23"/><rect class="cls-4" x="494.4" y="288.44" width="3.39" height="3.23"/><rect class="cls-4" x="499.16" y="288.44" width="3.39" height="3.23"/><rect class="cls-4" x="503.92" y="288.44" width="3.39" height="3.23"/><rect class="cls-4" x="396.52" y="282.73" width="3.57" height="3.57"/><rect class="cls-4" x="401.38" y="282.73" width="3.57" height="3.57"/><rect class="cls-4" x="406.24" y="282.73" width="3.57" height="3.57"/><rect class="cls-4" x="411.1" y="282.73" width="3.57" height="3.57"/><rect class="cls-4" x="415.96" y="282.73" width="3.57" height="3.57"/><rect class="cls-4" x="420.82" y="282.73" width="3.57" height="3.57"/><rect class="cls-4" x="396.52" y="287.67" width="3.57" height="3.57"/><rect class="cls-4" x="401.38" y="287.67" width="3.57" height="3.57"/><rect class="cls-4" x="406.24" y="287.67" width="3.57" height="3.57"/><rect class="cls-4" x="411.1" y="287.67" width="3.57" height="3.57"/><rect class="cls-4" x="415.96" y="287.67" width="3.57" height="3.57"/><rect class="cls-4" x="420.82" y="287.67" width="3.57" height="3.57"/><rect class="cls-4" x="365.5" y="282.73" width="3.57" height="3.57"/><rect class="cls-4" x="370.36" y="282.73" width="3.57" height="3.57"/><rect class="cls-4" x="375.22" y="282.73" width="3.57" height="3.57"/><rect class="cls-4" x="380.08" y="282.73" width="3.57" height="3.57"/><rect class="cls-4" x="384.94" y="282.73" width="3.57" height="3.57"/><rect class="cls-4" x="389.8" y="282.73" width="3.57" height="3.57"/><rect class="cls-4" x="365.5" y="287.67" width="3.57" height="3.57"/><rect class="cls-4" x="370.36" y="287.67" width="3.57" height="3.57"/><rect class="cls-4" x="375.22" y="287.67" width="3.57" height="3.57"/><rect class="cls-4" x="380.08" y="287.67" width="3.57" height="3.57"/><rect class="cls-4" x="384.94" y="287.67" width="3.57" height="3.57"/><rect class="cls-4" x="389.8" y="287.67" width="3.57" height="3.57"/><rect class="cls-4" x="427.61" y="282.73" width="3.57" height="3.57"/><rect class="cls-4" x="432.47" y="282.73" width="3.57" height="3.57"/><rect class="cls-4" x="437.33" y="282.73" width="3.57" height="3.57"/><rect class="cls-4" x="442.19" y="282.73" width="3.57" height="3.57"/><rect class="cls-4" x="447.05" y="282.73" width="3.57" height="3.57"/><rect class="cls-4" x="451.91" y="282.73" width="3.57" height="3.57"/><rect class="cls-4" x="427.61" y="287.67" width="3.57" height="3.57"/><rect class="cls-4" x="432.47" y="287.67" width="3.57" height="3.57"/><rect class="cls-4" x="437.33" y="287.67" width="3.57" height="3.57"/><rect class="cls-4" x="442.19" y="287.67" width="3.57" height="3.57"/><rect class="cls-4" x="447.05" y="287.67" width="3.57" height="3.57"/><rect class="cls-4" x="451.91" y="287.67" width="3.57" height="3.57"/><rect class="cls-4" x="458.71" y="282.73" width="3.57" height="3.57"/><rect class="cls-4" x="463.57" y="282.73" width="3.57" height="3.57"/><rect class="cls-4" x="468.43" y="282.73" width="3.57" height="3.57"/><rect class="cls-4" x="473.29" y="282.73" width="3.57" height="3.57"/><rect class="cls-4" x="478.15" y="282.73" width="3.57" height="3.57"/><rect class="cls-4" x="483.01" y="282.73" width="3.57" height="3.57"/><rect class="cls-4" x="458.71" y="287.67" width="3.57" height="3.57"/><rect class="cls-4" x="463.57" y="287.67" width="3.57" height="3.57"/><rect class="cls-4" x="468.43" y="287.67" width="3.57" height="3.57"/><rect class="cls-4" x="473.29" y="287.67" width="3.57" height="3.57"/><rect class="cls-4" x="478.15" y="287.67" width="3.57" height="3.57"/><rect class="cls-4" x="483.01" y="287.67" width="3.57" height="3.57"/><rect class="cls-3" x="167.69" y="279.49" width="151.3" height="15.13"/><rect class="cls-4" x="298.63" y="282.6" width="12.95" height="3.08"/><rect class="cls-4" x="296.7" y="288.44" width="3.39" height="3.23"/><rect class="cls-4" x="301.46" y="288.44" width="3.39" height="3.23"/><rect class="cls-4" x="306.21" y="288.44" width="3.39" height="3.23"/><rect class="cls-4" x="310.97" y="288.44" width="3.39" height="3.23"/><rect class="cls-4" x="203.57" y="282.73" width="3.57" height="3.57"/><rect class="cls-4" x="208.43" y="282.73" width="3.57" height="3.57"/><rect class="cls-4" x="213.29" y="282.73" width="3.57" height="3.57"/><rect class="cls-4" x="218.15" y="282.73" width="3.57" height="3.57"/><rect class="cls-4" x="223.01" y="282.73" width="3.57" height="3.57"/><rect class="cls-4" x="227.87" y="282.73" width="3.57" height="3.57"/><rect class="cls-4" x="203.57" y="287.67" width="3.57" height="3.57"/><rect class="cls-4" x="208.43" y="287.67" width="3.57" height="3.57"/><rect class="cls-4" x="213.29" y="287.67" width="3.57" height="3.57"/><rect class="cls-4" x="218.15" y="287.67" width="3.57" height="3.57"/><rect class="cls-4" x="223.01" y="287.67" width="3.57" height="3.57"/><rect class="cls-4" x="227.87" y="287.67" width="3.57" height="3.57"/><rect class="cls-4" x="172.55" y="282.73" width="3.57" height="3.57"/><rect class="cls-4" x="177.41" y="282.73" width="3.57" height="3.57"/><rect class="cls-4" x="182.27" y="282.73" width="3.57" height="3.57"/><rect class="cls-4" x="187.13" y="282.73" width="3.57" height="3.57"/><rect class="cls-4" x="191.99" y="282.73" width="3.57" height="3.57"/><rect class="cls-4" x="196.85" y="282.73" width="3.57" height="3.57"/><rect class="cls-4" x="172.55" y="287.67" width="3.57" height="3.57"/><rect class="cls-4" x="177.41" y="287.67" width="3.57" height="3.57"/><rect class="cls-4" x="182.27" y="287.67" width="3.57" height="3.57"/><rect class="cls-4" x="187.13" y="287.67" width="3.57" height="3.57"/><rect class="cls-4" x="191.99" y="287.67" width="3.57" height="3.57"/><rect class="cls-4" x="196.85" y="287.67" width="3.57" height="3.57"/><rect class="cls-4" x="234.66" y="282.73" width="3.57" height="3.57"/><rect class="cls-4" x="239.52" y="282.73" width="3.57" height="3.57"/><rect class="cls-4" x="244.38" y="282.73" width="3.57" height="3.57"/><rect class="cls-4" x="249.25" y="282.73" width="3.57" height="3.57"/><rect class="cls-4" x="254.11" y="282.73" width="3.57" height="3.57"/><rect class="cls-4" x="258.97" y="282.73" width="3.57" height="3.57"/><rect class="cls-4" x="234.66" y="287.67" width="3.57" height="3.57"/><rect class="cls-4" x="239.52" y="287.67" width="3.57" height="3.57"/><rect class="cls-4" x="244.38" y="287.67" width="3.57" height="3.57"/><rect class="cls-4" x="249.25" y="287.67" width="3.57" height="3.57"/><rect class="cls-4" x="254.11" y="287.67" width="3.57" height="3.57"/><rect class="cls-4" x="258.97" y="287.67" width="3.57" height="3.57"/><rect class="cls-4" x="265.76" y="282.73" width="3.57" height="3.57"/><rect class="cls-4" x="270.62" y="282.73" width="3.57" height="3.57"/><rect class="cls-4" x="275.48" y="282.73" width="3.57" height="3.57"/><rect class="cls-4" x="280.34" y="282.73" width="3.57" height="3.57"/><rect class="cls-4" x="285.2" y="282.73" width="3.57" height="3.57"/><rect class="cls-4" x="290.06" y="282.73" width="3.57" height="3.57"/><rect class="cls-4" x="265.76" y="287.67" width="3.57" height="3.57"/><rect class="cls-4" x="270.62" y="287.67" width="3.57" height="3.57"/><rect class="cls-4" x="275.48" y="287.67" width="3.57" height="3.57"/><rect class="cls-4" x="280.34" y="287.67" width="3.57" height="3.57"/><rect class="cls-4" x="285.2" y="287.67" width="3.57" height="3.57"/><rect class="cls-4" x="290.06" y="287.67" width="3.57" height="3.57"/><rect class="cls-3" x="2.94" y="279.49" width="151.3" height="15.13"/><rect class="cls-4" x="133.87" y="282.6" width="12.95" height="3.08"/><rect class="cls-4" x="131.95" y="288.44" width="3.39" height="3.23"/><rect class="cls-4" x="136.7" y="288.44" width="3.39" height="3.23"/><rect class="cls-4" x="141.46" y="288.44" width="3.39" height="3.23"/><rect class="cls-4" x="146.22" y="288.44" width="3.39" height="3.23"/><rect class="cls-4" x="38.82" y="282.73" width="3.57" height="3.57"/><rect class="cls-4" x="43.68" y="282.73" width="3.57" height="3.57"/><rect class="cls-4" x="48.54" y="282.73" width="3.57" height="3.57"/><rect class="cls-4" x="53.4" y="282.73" width="3.57" height="3.57"/><rect class="cls-4" x="58.26" y="282.73" width="3.57" height="3.57"/><rect class="cls-4" x="63.12" y="282.73" width="3.57" height="3.57"/><rect class="cls-4" x="38.82" y="287.67" width="3.57" height="3.57"/><rect class="cls-4" x="43.68" y="287.67" width="3.57" height="3.57"/><rect class="cls-4" x="48.54" y="287.67" width="3.57" height="3.57"/><rect class="cls-4" x="53.4" y="287.67" width="3.57" height="3.57"/><rect class="cls-4" x="58.26" y="287.67" width="3.57" height="3.57"/><rect class="cls-4" x="63.12" y="287.67" width="3.57" height="3.57"/><rect class="cls-4" x="7.8" y="282.73" width="3.57" height="3.57"/><rect class="cls-4" x="12.66" y="282.73" width="3.57" height="3.57"/><rect class="cls-4" x="17.52" y="282.73" width="3.57" height="3.57"/><rect class="cls-4" x="22.38" y="282.73" width="3.57" height="3.57"/><rect class="cls-4" x="27.24" y="282.73" width="3.57" height="3.57"/><rect class="cls-4" x="32.1" y="282.73" width="3.57" height="3.57"/><rect class="cls-4" x="7.8" y="287.67" width="3.57" height="3.57"/><rect class="cls-4" x="12.66" y="287.67" width="3.57" height="3.57"/><rect class="cls-4" x="17.52" y="287.67" width="3.57" height="3.57"/><rect class="cls-4" x="22.38" y="287.67" width="3.57" height="3.57"/><rect class="cls-4" x="27.24" y="287.67" width="3.57" height="3.57"/><rect class="cls-4" x="32.1" y="287.67" width="3.57" height="3.57"/><rect class="cls-4" x="69.91" y="282.73" width="3.57" height="3.57"/><rect class="cls-4" x="74.77" y="282.73" width="3.57" height="3.57"/><rect class="cls-4" x="79.63" y="282.73" width="3.57" height="3.57"/><rect class="cls-4" x="84.49" y="282.73" width="3.57" height="3.57"/><rect class="cls-4" x="89.35" y="282.73" width="3.57" height="3.57"/><rect class="cls-4" x="94.21" y="282.73" width="3.57" height="3.57"/><rect class="cls-4" x="69.91" y="287.67" width="3.57" height="3.57"/><rect class="cls-4" x="74.77" y="287.67" width="3.57" height="3.57"/><rect class="cls-4" x="79.63" y="287.67" width="3.57" height="3.57"/><rect class="cls-4" x="84.49" y="287.67" width="3.57" height="3.57"/><rect class="cls-4" x="89.35" y="287.67" width="3.57" height="3.57"/><rect class="cls-4" x="94.21" y="287.67" width="3.57" height="3.57"/><rect class="cls-4" x="101" y="282.73" width="3.57" height="3.57"/><rect class="cls-4" x="105.86" y="282.73" width="3.57" height="3.57"/><rect class="cls-4" x="110.73" y="282.73" width="3.57" height="3.57"/><rect class="cls-4" x="115.59" y="282.73" width="3.57" height="3.57"/><rect class="cls-4" x="120.45" y="282.73" width="3.57" height="3.57"/><rect class="cls-4" x="125.31" y="282.73" width="3.57" height="3.57"/><rect class="cls-4" x="101" y="287.67" width="3.57" height="3.57"/><rect class="cls-4" x="105.86" y="287.67" width="3.57" height="3.57"/><rect class="cls-4" x="110.73" y="287.67" width="3.57" height="3.57"/><rect class="cls-4" x="115.59" y="287.67" width="3.57" height="3.57"/><rect class="cls-4" x="120.45" y="287.67" width="3.57" height="3.57"/><rect class="cls-4" x="125.31" y="287.67" width="3.57" height="3.57"/><rect class="cls-3" x="390.11" y="164.32" width="150.97" height="15.1"/><rect class="cls-4" x="457.56" y="172.38" width="5.58" height="3.69"/><rect class="cls-4" x="457.56" y="167.67" width="5.58" height="3.69"/><rect class="cls-4" x="464.05" y="172.38" width="5.58" height="3.69"/><rect class="cls-4" x="464.05" y="167.67" width="5.58" height="3.69"/><rect class="cls-4" x="444.48" y="172.38" width="5.58" height="3.69"/><rect class="cls-4" x="444.48" y="167.67" width="5.58" height="3.69"/><rect class="cls-4" x="450.98" y="172.38" width="5.58" height="3.69"/><rect class="cls-4" x="450.98" y="167.67" width="5.58" height="3.69"/><rect class="cls-4" x="486.59" y="172.64" width="3.38" height="3.22"/><rect class="cls-4" x="492.19" y="172.64" width="3.38" height="3.22"/><rect class="cls-4" x="497.8" y="172.64" width="3.38" height="3.22"/><rect class="cls-4" x="503.4" y="172.64" width="3.38" height="3.22"/><rect class="cls-4" x="508.98" y="170.08" width="2.1" height="5.79"/><rect class="cls-4" x="427.44" y="172.71" width="6.13" height="3.69"/><rect class="cls-4" x="434.58" y="172.71" width="6.13" height="3.69"/><rect class="cls-4" x="413.07" y="172.71" width="6.13" height="3.69"/><rect class="cls-4" x="402.52" y="172.71" width="6.13" height="3.69"/><rect class="cls-4" x="420.21" y="172.71" width="6.13" height="3.69"/><rect class="cls-3" x="126.07" y="164.32" width="150.97" height="15.1"/><rect class="cls-4" x="193.52" y="172.38" width="5.58" height="3.69"/><rect class="cls-4" x="193.52" y="167.67" width="5.58" height="3.69"/><rect class="cls-4" x="200.02" y="172.38" width="5.58" height="3.69"/><rect class="cls-4" x="200.02" y="167.67" width="5.58" height="3.69"/><rect class="cls-4" x="180.45" y="172.38" width="5.58" height="3.69"/><rect class="cls-4" x="180.45" y="167.67" width="5.58" height="3.69"/><rect class="cls-4" x="186.95" y="172.38" width="5.58" height="3.69"/><rect class="cls-4" x="186.95" y="167.67" width="5.58" height="3.69"/><rect class="cls-4" x="222.55" y="172.64" width="3.38" height="3.22"/><rect class="cls-4" x="228.16" y="172.64" width="3.38" height="3.22"/><rect class="cls-4" x="233.76" y="172.64" width="3.38" height="3.22"/><rect class="cls-4" x="239.37" y="172.64" width="3.38" height="3.22"/><rect class="cls-4" x="244.94" y="170.08" width="2.1" height="5.79"/><rect class="cls-4" x="163.4" y="172.71" width="6.13" height="3.69"/><rect class="cls-4" x="170.54" y="172.71" width="6.13" height="3.69"/><rect class="cls-4" x="149.04" y="172.71" width="6.13" height="3.69"/><rect class="cls-4" x="138.48" y="172.71" width="6.13" height="3.69"/><rect class="cls-4" x="156.18" y="172.71" width="6.13" height="3.69"/></g></svg>