<svg xmlns="http://www.w3.org/2000/svg" xmlns:xlink="http://www.w3.org/1999/xlink" viewBox="0 0 255 45">
	<defs>
		<style>
			.cls-1{fill:none;}.cls-2{fill:#fff;}.cls-3{clip-path:url(#clip-path);}
		</style>
		<clipPath id="clip-path">
			<rect class="cls-1" x="3.74" y="0.5" width="161" height="44" />
		</clipPath>
	</defs>
	<g id="Layer_7" data-name="Layer 7">
		<polygon class="cls-2" points="82.69 35.84 83.68 35.84 88.77 42.86 88.77 35.84 89.65 35.84 89.65 44.36 88.82 44.36 83.56 37.12 83.56 44.36 82.69 44.36 82.69 35.84 82.69 35.84" />
		<polygon class="cls-2" points="91.82 35.84 97.46 35.84 97.46 36.7 92.73 36.7 92.73 39.52 97.34 39.52 97.34 40.37 92.73 40.37 92.73 43.53 97.5 43.53 97.5 44.36 91.82 44.36 91.82 35.84 91.82 35.84" />
		<polygon class="cls-2" points="102.02 36.7 98.83 36.7 98.83 35.84 106.13 35.84 106.13 36.7 102.93 36.7 102.93 44.36 102.02 44.36 102.02 36.7 102.02 36.7" />
		<polygon class="cls-2" points="107.23 35.84 108.17 35.84 110.41 42.89 112.7 35.84 113.48 35.84 115.76 42.89 118.01 35.84 118.89 35.84 116.15 44.42 115.37 44.42 113.07 37.32 110.78 44.42 109.98 44.42 107.23 35.84 107.23 35.84" />
		<path class="cls-2" d="M127.37,40.1c0-2.3-1.07-3.54-3.39-3.54s-3.37,1.24-3.37,3.54,1.06,3.56,3.37,3.56,3.39-1.24,3.39-3.56Zm-7.67,0c0-3,1.55-4.39,4.28-4.39s4.3,1.36,4.3,4.39-1.56,4.41-4.3,4.41-4.28-1.36-4.28-4.41Z" />
		<path class="cls-2" d="M133.83,40.06c1.2,0,1.95-.37,1.95-1.72s-.72-1.66-2-1.66H131v3.38Zm-.26.83H131v3.47h-.89V35.84h3.69c2,0,2.87.79,2.87,2.48a2.27,2.27,0,0,1-2.19,2.53l2.06,3.51h-1l-2-3.47Z" />
		<polygon class="cls-2" points="141.21 39.84 139.51 41.7 139.51 44.36 138.62 44.36 138.62 35.84 139.51 35.84 139.51 40.54 143.82 35.84 144.87 35.84 141.81 39.18 145.28 44.36 144.26 44.36 141.21 39.84 141.21 39.84" />
		<path class="cls-2" d="M146,43.5l.46-.69a5.54,5.54,0,0,0,3.05.86c1.76,0,2.54-.5,2.54-1.67s-1-1.38-2.54-1.65c-1.84-.33-3.08-.64-3.08-2.36s1.05-2.29,3.08-2.29a5.2,5.2,0,0,1,3,.76l-.49.73a4.65,4.65,0,0,0-2.48-.66c-1.53,0-2.19.42-2.19,1.43s.89,1.29,2.41,1.57c1.86.33,3.21.61,3.21,2.44s-1.08,2.5-3.41,2.5a6.17,6.17,0,0,1-3.53-1Z" />
		<path class="cls-2" d="M161.89.61c-12,0-12.49,5.37-12.49,12.94v18.6h2.82V13.55c0-5.71-.22-10.28,9.67-10.28a24.13,24.13,0,0,1,2.84.15V.73c-.87-.08-1.81-.12-2.84-.12Z" />
		<path class="cls-2" d="M22.14,20.05V1.23H25V20.11c0,5.42-.06,10,9.89,10s9.67-4.58,9.67-10.29V1.23H47.4V19.82c0,7.58-.51,13-12.49,13S22.14,27.4,22.14,20.05Z" />
		<path class="cls-2" d="M77.44,13.33V32.15H74.56V13.27c0-5.43.06-10-9.89-10S55,7.84,55,13.55v18.6H52.18V13.55C52.18,6,52.69.61,64.67.61S77.44,6,77.44,13.33Z" />
		<polygon class="cls-2" points="82.69 1.29 85.45 1.29 85.45 32.15 82.69 32.15 82.69 1.29 82.69 1.29" />
		<path class="cls-2" d="M105.12,18.65c5,0,7.48-2.43,7.48-7.35s-2.68-7.24-7.6-7.24H93.4V18.65ZM90.64,1.29h14.44c7.17,0,10.41,3.56,10.41,9.89S112.29,21.42,105,21.42H93.4V32.15H90.64V1.29Z" />
		<g class="cls-3">
			<path class="cls-2" d="M121.54,14.51h21c-.28-6.16-.67-11.41-9.66-11.41-8.65,0-11,4.69-11.36,11.41Zm-2.83,2.09c0-9.09,2.6-16.1,14.25-16.1,12,0,12.43,8.08,12.37,16.61H121.48c.06,7.52,1.92,13.12,11.7,13.12A14.79,14.79,0,0,0,143.3,27L144.88,29a18.13,18.13,0,0,1-11.7,3.73c-12.21,0-14.47-7.07-14.47-16.17Z" />
			<path class="cls-2" d="M4.78,38.84c12,0,12.49-5.37,12.49-12.94V1.23H14.45V25.9c0,5.71.22,10.29-9.67,10.29-.37,0-.72,0-1.07,0v2.67Z" />
		</g>
		<path class="cls-2" d="M158.41,28.63a1.7,1.7,0,1,0,1.7,1.7,1.7,1.7,0,0,0-1.7-1.7Zm0,3.65a2,2,0,1,1,2-2,2,2,0,0,1-2,2Z" />
		<path class="cls-2" d="M158.6,30.31c.31,0,.49-.09.49-.42s-.17-.4-.5-.4h-.68v.82Zm-.07.28h-.62v.86h-.3V29.21h1c.57,0,.78.23.78.67a.61.61,0,0,1-.54.69l.51.88H159l-.5-.86Z" />
	</g>
</svg>
