<svg xmlns="http://www.w3.org/2000/svg" xmlns:xlink="http://www.w3.org/1999/xlink" viewBox="0 0 680 600"><defs><style>.cls-1,.cls-13,.cls-5{fill:none;}.cls-10,.cls-2{fill:#fff;}.cls-2{stroke:#fff;}.cls-13,.cls-2,.cls-5{stroke-miterlimit:10;}.cls-3{clip-path:url(#clip-path);}.cls-4{fill:#f2f2f3;}.cls-5{stroke:#8c8074;}.cls-6{opacity:0.33;}.cls-7{clip-path:url(#clip-path-4);}.cls-8{opacity:0.6;}.cls-9{clip-path:url(#clip-path-5);}.cls-11{fill:#bfbcba;}.cls-12{fill:#c5d3e4;}.cls-13{stroke:#c6d3e4;}</style><clipPath id="clip-path"><rect class="cls-1" x="67.5" y="26.41" width="545" height="545"/></clipPath><clipPath id="clip-path-4"><rect class="cls-1" x="252.47" y="87.74" width="173.14" height="115.77"/></clipPath><clipPath id="clip-path-5"><rect class="cls-1" x="299.35" y="56.48" width="79.39" height="191.8"/></clipPath></defs><g id="index_square"><rect class="cls-2" width="680" height="600"/><g class="cls-3"><g class="cls-3"><path class="cls-4" d="M511.17,564.6H168.83a94.52,94.52,0,0,1-94.52-94.52V127.74a94.51,94.51,0,0,1,94.52-94.51H511.17a94.51,94.51,0,0,1,94.52,94.51V470.08a94.52,94.52,0,0,1-94.52,94.52"/><rect class="cls-5" x="74.31" y="33.23" width="531.37" height="531.37" rx="94.52"/></g><g class="cls-3"><path class="cls-10" d="M340,553.7c-140.49,0-254.79-114.3-254.79-254.79S199.51,44.13,340,44.13,594.79,158.42,594.79,298.91,480.49,553.7,340,553.7"/><path class="cls-11" d="M340,46.85c139.21,0,252.06,112.85,252.06,252.06S479.21,551,340,551,87.94,438.12,87.94,298.91,200.79,46.85,340,46.85m0-5.45C198,41.4,82.49,156.92,82.49,298.91S198,556.43,340,556.43,597.51,440.91,597.51,298.91,482,41.4,340,41.4"/><path class="cls-12" d="M483.45,192.86a48.55,48.55,0,0,1,9.84,15.31c2.45,6.75,4.31,12.86,4.31,17.74V462.59a19.37,19.37,0,0,1-5.53,14.08,20.12,20.12,0,0,1-14.16,6.18H202a18.92,18.92,0,0,1-19.61-19.61V134.59A18.92,18.92,0,0,1,202,115H385.94a39.18,39.18,0,0,1,17.75,4.31A40.22,40.22,0,0,1,419,129.13ZM392.7,143.21v77.24h77.24a36,36,0,0,0-4.31-8.55l-65-64.38c-1.16-1.86-4.24-3.09-7.91-4.31m78.46,313.27V246.17H385.94a18.92,18.92,0,0,1-19.61-19.61V141.35H208.76V456.48Zm-190-183.94c1.22-1.22,2.44-2.44,4.31-2.44s3.66,0,4.88,1.22l10.42,8c1.22,1.22,2.45,2.44,2.45,4.31s0,3.66-1.23,4.89l-37.43,49.64L302,387.79a4.7,4.7,0,0,1,1.23,4.89c0,1.87-1.23,3.09-2.45,4.31l-10.42,8a4.7,4.7,0,0,1-4.88,1.22c-1.87,0-3.09-1.22-4.31-2.45l-46.63-61.93c-1.87-2.45-1.87-4.89,0-8Zm164.32,61.94c1.87,2.44,1.87,4.88,0,8l-46.63,61.94c-1.22,1.22-2.44,2.44-4.31,2.44s-3.67,0-4.89-1.22l-10.42-8c-1.22-1.23-2.44-2.45-2.44-4.32s0-3.66,1.22-4.88l37.44-49.65L378,289.14a10.09,10.09,0,0,1-1.22-5.53c0-1.87,1.22-3.09,2.44-4.31l10.42-8a4.7,4.7,0,0,1,4.89-1.22c1.87,0,3.09,1.22,4.31,2.44Zm-127,94.41c-1.87,0-3.09-1.22-4.31-2.44s-1.22-3.09-1.22-4.89l28.23-170.43c0-1.87,1.22-3.09,2.45-4.31s3.09-1.22,4.88-1.22l12.86,1.87c1.87,0,3.09,1.22,4.31,2.44s1.23,3.09,1.23,4.89L338.67,425.23c0,1.87-1.22,3.09-2.44,4.31s-3.09,1.22-4.89,1.22Z"/><path class="cls-13" d="M483.45,192.86a48.55,48.55,0,0,1,9.84,15.31c2.45,6.75,4.32,12.86,4.32,17.74V462.59a19.38,19.38,0,0,1-5.54,14.08,20.1,20.1,0,0,1-14.16,6.18H202a18.92,18.92,0,0,1-19.61-19.61V134.59A18.92,18.92,0,0,1,202,115H386a39.17,39.17,0,0,1,17.74,4.31A40.14,40.14,0,0,1,419,129.13ZM392.7,143.21v77.24h77.24a36,36,0,0,0-4.31-8.55l-65-64.38C399.45,145.66,396.37,144.43,392.7,143.21Zm78.46,313.27V246.18H386a18.94,18.94,0,0,1-19.62-19.62V141.35H208.76V456.48Zm-190-183.94c1.22-1.22,2.44-2.44,4.31-2.44s3.66,0,4.89,1.22l10.41,8c1.23,1.22,2.45,2.44,2.45,4.31s0,3.66-1.22,4.89l-37.44,49.64L302,387.79a4.72,4.72,0,0,1,1.22,4.89c0,1.87-1.22,3.09-2.45,4.31l-10.41,8a4.73,4.73,0,0,1-4.89,1.22c-1.87,0-3.09-1.22-4.31-2.45l-46.63-61.93c-1.87-2.45-1.87-4.89,0-8Zm164.32,61.94c1.87,2.44,1.87,4.88,0,8l-46.63,61.94c-1.22,1.22-2.44,2.44-4.31,2.44s-3.67,0-4.89-1.22l-10.42-8c-1.22-1.22-2.44-2.45-2.44-4.31s0-3.67,1.23-4.89l37.43-49.65L378,289.14a10,10,0,0,1-1.23-5.53c0-1.87,1.23-3.09,2.44-4.31l10.42-8a4.7,4.7,0,0,1,4.89-1.22c1.87,0,3.09,1.22,4.31,2.44Zm-127,94.41c-1.87,0-3.09-1.22-4.31-2.44s-1.22-3.09-1.22-4.89l28.24-170.43c0-1.86,1.22-3.09,2.44-4.31s3.09-1.22,4.88-1.22l12.86,1.87c1.87,0,3.1,1.22,4.32,2.44s1.22,3.09,1.22,4.89L338.67,425.23c0,1.87-1.22,3.09-2.44,4.31s-3.09,1.22-4.89,1.22Z"/></g></g></g></svg>