<svg xmlns="http://www.w3.org/2000/svg" xmlns:xlink="http://www.w3.org/1999/xlink" viewBox="0 0 680 600"><defs><style>.cls-1,.cls-5{fill:none;}.cls-2,.cls-6{fill:#fff;}.cls-2{stroke:#fff;}.cls-2,.cls-5{stroke-miterlimit:10;}.cls-3{clip-path:url(#clip-path);}.cls-4{fill:#f2f2f3;}.cls-5{stroke:#8c8074;}.cls-7{fill:#bfbcba;}.cls-8{fill:#c5d3e4;}.cls-9{fill:#f04c39;}.cls-10{opacity:0.33;}.cls-11{clip-path:url(#clip-path-6);}.cls-12{opacity:0.6;}.cls-13{clip-path:url(#clip-path-7);}</style><clipPath id="clip-path"><rect class="cls-1" x="73.64" y="26.91" width="545" height="545"/></clipPath><clipPath id="clip-path-6"><rect class="cls-1" x="258.61" y="88.24" width="173.14" height="115.77"/></clipPath><clipPath id="clip-path-7"><rect class="cls-1" x="305.49" y="56.98" width="79.39" height="191.8"/></clipPath></defs><g id="index_square"><rect class="cls-2" width="680" height="600"/><g class="cls-3"><g class="cls-3"><path class="cls-4" d="M517.31,565.1H175a94.52,94.52,0,0,1-94.52-94.52V128.24A94.51,94.51,0,0,1,175,33.73H517.31a94.51,94.51,0,0,1,94.52,94.51V470.58a94.52,94.52,0,0,1-94.52,94.52"/><rect class="cls-5" x="80.45" y="33.73" width="531.37" height="531.38" rx="94.52"/></g><g class="cls-3"><path class="cls-6" d="M346.14,554.2c-140.49,0-254.79-114.3-254.79-254.79S205.65,44.63,346.14,44.63,600.93,158.92,600.93,299.41,486.63,554.2,346.14,554.2"/><path class="cls-7" d="M346.14,47.35c139.21,0,252.06,112.85,252.06,252.06S485.35,551.48,346.14,551.48,94.08,438.62,94.08,299.41,206.93,47.35,346.14,47.35m0-5.45c-142,0-257.51,115.52-257.51,257.51S204.15,556.93,346.14,556.93,603.65,441.41,603.65,299.41,488.13,41.9,346.14,41.9"/></g><g class="cls-3"><path class="cls-8" d="M359.46,229.88,379.32,206a14.85,14.85,0,0,1,20.73-2.08l3.77,3a14.77,14.77,0,0,1,3.24,3.63c8.61,13.62,4,5.81,12.09,19.74.91-.52-1,.31,0,0,1.53-.49,15.21,0,16.77,0l-.64-89.08H286.81v89.08h71.48"/><path class="cls-8" d="M524.37,156.08a14.84,14.84,0,0,0-14.85-14.84H465v89.08h59.39Z"/><path class="cls-8" d="M304.25,294.89a14.84,14.84,0,0,1,24.75-.63A122.67,122.67,0,0,1,339.47,260H168v59.39H293.44a101.59,101.59,0,0,1,10.81-24.52"/><path class="cls-8" d="M489.74,319.41h34.63V260H465v14.84l3,4.87a107,107,0,0,1,21.74,39.68"/><path class="cls-8" d="M257.11,141.24H182.87A14.86,14.86,0,0,0,168,156.08v74.24h89.09Z"/><path class="cls-8" d="M168,423.34a14.85,14.85,0,0,0,14.84,14.85h74.24V349.1H168Z"/><path class="cls-8" d="M494.69,349.1a102,102,0,0,1-26,69.76,103.24,103.24,0,0,1-23.58,19.33h64.45a14.85,14.85,0,0,0,14.85-14.85V349.1Z"/><path class="cls-9" d="M445.69,299.32l-1.43-1.62a208.82,208.82,0,0,1-6.1,20.73,14.86,14.86,0,0,1-28.78-5.18c0-24.35-6.59-49-19.61-73.4L382,249.18c-23.07,26.3-30,57.83-21.34,96.7a14.89,14.89,0,0,1-11.24,17.77,14.73,14.73,0,0,1-13.79-4,112,112,0,0,1-16.82-18.81,73.48,73.48,0,0,0,72.56,82.52c20.95-.53,41.14-8.74,55.19-24.35,25-27.76,24.61-70.61-.89-99.67"/><path class="cls-8" d="M314.16,417.86c-17-19.33-25.3-44-25.2-68.76h-2.15v89.09h51.75a103.43,103.43,0,0,1-24.4-20.33"/></g></g></g></svg>