<svg xmlns="http://www.w3.org/2000/svg" xmlns:xlink="http://www.w3.org/1999/xlink" viewBox="0 0 680 600"><defs><style>.cls-1,.cls-10,.cls-5{fill:none;}.cls-2,.cls-8{fill:#fff;}.cls-2{stroke:#fff;}.cls-10,.cls-2,.cls-5{stroke-miterlimit:10;}.cls-3{clip-path:url(#clip-path);}.cls-4{fill:#f2f2f3;}.cls-5{stroke:#4b5a2d;}.cls-6{opacity:0.33;}.cls-7{opacity:0.6;}.cls-9{fill:#bfbcba;}.cls-10{stroke:#8c8074;stroke-width:3px;}.cls-11{fill:#c6d3e4;}</style><clipPath id="clip-path"><rect class="cls-1" x="75.21" y="27.41" width="545" height="545"/></clipPath></defs><g id="index_square"><rect class="cls-2" width="680" height="600"/><g class="cls-3"><g class="cls-3"><path class="cls-4" d="M518.88,565.6H176.55A94.51,94.51,0,0,1,82,471.08V128.74a94.51,94.51,0,0,1,94.52-94.51H518.88a94.51,94.51,0,0,1,94.52,94.51V471.08a94.52,94.52,0,0,1-94.52,94.52"/><rect class="cls-5" x="82.03" y="34.23" width="531.37" height="531.38" rx="94.52"/></g><g class="cls-3"><path class="cls-8" d="M347.71,554.7c-140.49,0-254.78-114.3-254.78-254.79S207.22,45.13,347.71,45.13,602.5,159.42,602.5,299.91,488.2,554.7,347.71,554.7"/><path class="cls-9" d="M347.71,47.85c139.21,0,252.07,112.85,252.07,252.06S486.92,552,347.71,552,95.65,439.12,95.65,299.91,208.51,47.85,347.71,47.85m0-5.45c-142,0-257.51,115.52-257.51,257.51S205.72,557.43,347.71,557.43,605.23,441.91,605.23,299.91,489.71,42.4,347.71,42.4"/><path class="cls-8" d="M109.28,299.14c0,36,35.16,69.64,90.61,88.59-11.08,55.73-2,100.66,28.37,118.16,31.19,18,77.67,5.54,121.78-33,43,37,86.47,51.57,116.79,34,31.17-18,40.65-66,29.27-123.49,57.75-19.09,90-47.76,90-84.25,0-35.18-35.23-65.61-89.93-84.44C508.47,154.85,498.1,111,466.49,92.79,436,75.22,392.05,90.53,348.41,128.51,303,88.2,259.49,75.9,227.91,94.17c-30.44,17.63-39.13,63.37-28,120.14-53.57,18.68-90.61,49.8-90.61,84.83"/><path class="cls-10" d="M109.28,299.14c0,36,35.16,69.64,90.61,88.59-11.08,55.73-2,100.66,28.37,118.16,31.19,18,77.67,5.54,121.78-33,43,37,86.47,51.57,116.79,34,31.17-18,40.65-66,29.27-123.49,57.75-19.09,90-47.76,90-84.25,0-35.18-35.23-65.61-89.93-84.44C508.47,154.85,498.1,111,466.49,92.79,436,75.22,392.05,90.53,348.41,128.51,303,88.2,259.49,75.9,227.91,94.17c-30.44,17.63-39.13,63.37-28,120.14C146.32,233,109.28,264.11,109.28,299.14Z"/><path class="cls-11" d="M484.64,233.4c-4.5-1.54-9.05-3-13.63-4.29q1.14-4.63,2.11-9.3c10.32-50.1,3.57-90.46-19.47-103.74-22.1-12.74-58.23.54-94.72,32.3q-5.4,4.69-10.55,9.68c-2.29-2.21-4.64-4.37-7-6.49-38.25-34-76.58-48.26-99.6-34.94-22.07,12.78-28.61,50.72-19.32,98.2q1.4,7.05,3.13,14-8.15,2.31-15.67,4.93c-44.84,15.63-73.48,40.13-73.48,65.55,0,26.24,30.74,52.57,77.45,68.53q5.67,1.93,11.45,3.58-1.87,7.51-3.33,15.12c-8.86,46.65-1.94,83.69,20.07,96.39,22.74,13.11,60.9-.36,98.06-32.84q4.41-3.86,8.84-8.15c3.71,3.59,7.54,7.07,11.45,10.45,36,31,71.54,43.48,93.53,30.74,22.72-13.15,30.1-52.94,20.52-101.36q-1.11-5.53-2.54-11.32c2.67-.79,5.3-1.61,7.87-2.46,48.55-16.08,80.14-42.09,80.14-68.68,0-25.51-29.56-50.17-75.3-65.92"/><path class="cls-8" d="M474.11,350.83c-2.31.77-4.69,1.51-7.11,2.23a424,424,0,0,0-21.45-53.65,424.05,424.05,0,0,0,20.61-52.88q6.51,1.89,12.59,4c39.19,13.49,63.1,33.44,63.1,48.81,0,16.37-25.82,37.62-67.74,51.51ZM456.72,385.3c4.24,21.41,4.84,40.76,2,55.9-2.52,13.59-7.59,22.65-13.86,26.29-13.35,7.72-41.89-2.32-72.67-28.81q-5.3-4.56-10.65-9.71a424.47,424.47,0,0,0,35.5-45.08,420.8,420.8,0,0,0,57.36-8.84q1.29,5.24,2.29,10.25M280.81,466.15c-13,4.61-23.42,4.74-29.7,1.12-13.36-7.71-18.91-37.45-11.33-77.35q1.35-7.07,3.09-14.06a425.89,425.89,0,0,0,57.07,8.27A442.24,442.24,0,0,0,336.29,429q-3.93,3.81-8.06,7.43c-16.44,14.37-32.9,24.55-47.41,29.68ZM219.73,350.73c-20.65-7.06-37.71-16.23-49.4-26.24-10.5-9-15.81-17.93-15.81-25.17,0-15.42,23-35.09,61.34-48.46q7.21-2.51,14.58-4.59a433.87,433.87,0,0,0,20.64,53.49A439.79,439.79,0,0,0,230.18,354q-5.27-1.5-10.45-3.27M240.2,211.34c-8-40.68-2.67-71.36,10.63-79.06,14.17-8.2,45.5,3.49,78.52,32.81q3.16,2.82,6.36,5.87a432,432,0,0,0-36.08,44.64,442.66,442.66,0,0,0-56.51,8.79q-1.62-6.49-2.92-13Zm182.69,45.11q-6.21-10.72-12.88-21.18c13.51,1.71,26.46,4,38.62,6.75a385.18,385.18,0,0,1-13.56,36.47q-5.86-11.14-12.18-22m-74.5-72.56A387.94,387.94,0,0,1,373.31,214q-25-1.17-50.05,0c8.23-10.85,16.65-20.93,25.13-30.07m-75,72.68q-6.23,10.81-12,21.9c-5.27-12.49-9.78-24.78-13.46-36.64,12.09-2.71,25-4.92,38.4-6.6q-6.75,10.53-13,21.34m13.38,108.12a385.34,385.34,0,0,1-39-6.28c3.74-12.07,8.35-24.62,13.73-37.38q5.75,11.09,12,21.91,6.39,11,13.3,21.75M348.89,416c-8.57-9.25-17.13-19.49-25.48-30.49q12.16.47,24.77.48,13,0,25.57-.57A381.37,381.37,0,0,1,348.89,416m86.35-95.65a385.12,385.12,0,0,1,14.22,37.26,382.84,382.84,0,0,1-39.5,6.73q6.72-10.64,13-21.55,6.39-11.08,12.28-22.44m-27.95,13.41q-9.63,16.71-20.32,32.78c-12.57.89-25.55,1.36-38.79,1.36s-26-.41-38.34-1.21q-11-16-20.69-32.84t-18.07-34.12q8.35-17.4,18-34.14h0q9.65-16.73,20.54-32.69c12.59-.95,25.5-1.45,38.56-1.45s26,.5,38.63,1.46q10.79,15.93,20.41,32.58t18.26,34q-8.49,17.44-18.2,34.28Zm37.32-202c14.18,8.18,19.7,41.16,10.79,84.42-.59,2.81-1.22,5.62-1.91,8.41a433.37,433.37,0,0,0-56.63-8.94A424.49,424.49,0,0,0,361.07,171q4.76-4.59,9.74-8.93c31.26-27.21,60.48-38,73.8-30.28"/><path class="cls-9" d="M348.19,261.5a37.82,37.82,0,1,1-37.82,37.82,37.82,37.82,0,0,1,37.82-37.82"/></g></g></g></svg>